<svg width="16" height="16" viewBox="0 0 16 16" fill="none" xmlns="http://www.w3.org/2000/svg">
<path d="M7.43938 15.9825C8.1736 15.567 8.85411 14.9611 9.45526 14.2461C9.59761 14.0769 9.73654 13.9004 9.87157 13.7175C10.4097 13.844 10.826 14.0209 11.0983 14.2437C11.3847 14.4782 11.5268 14.7712 11.4584 15.2184C10.4119 15.7207 9.23941 16.002 8.00098 16.002C7.81223 16.002 7.62495 15.9954 7.43938 15.9825Z" fill="#CAB167"/>
<path d="M5.43157 15.5805C6.52204 15.5328 7.66524 14.821 8.68978 13.6025L8.74081 13.5413C7.4765 13.4229 6.02906 13.4992 4.8795 13.6071L4.6302 13.6318C4.04322 13.691 3.26651 13.7694 2.51764 13.6814C2.45953 13.6745 2.40117 13.6666 2.34257 13.6576C3.20156 14.5169 4.25516 15.1819 5.43157 15.5805Z" fill="#CAB167"/>
<path d="M0.943475 11.7738L0.94909 11.7701C1.33 12.3521 1.92309 12.6044 2.63435 12.6881C3.26578 12.7623 3.92284 12.6969 4.51789 12.6377L4.78598 12.6114C6.1111 12.4869 7.91503 12.3935 9.41936 12.6156C9.60615 12.3295 9.78391 12.0288 9.95117 11.7162C9.05335 11.4985 8.0647 11.1908 6.98376 10.776C4.08302 9.66256 1.64815 7.73007 0.281284 5.89073C0.0979123 6.56306 0 7.27054 0 8.00098C0 9.36528 0.34135 10.6499 0.943475 11.7738Z" fill="#CAB167"/>
<path d="M0.698327 4.7269C1.79612 6.51532 4.25882 8.65877 7.3422 9.84227C8.47735 10.278 9.49506 10.5867 10.3987 10.7943C10.4913 10.5834 10.5792 10.3689 10.6617 10.1514C10.5506 10.0905 10.4417 10.0231 10.3355 9.94909C10.1568 9.82456 9.98266 9.6777 9.8137 9.51398C9.52631 9.23538 9.25333 8.90819 8.99646 8.55964C8.58503 8.00171 8.19485 7.36247 7.83445 6.72348C7.50214 6.13478 7.18984 5.53693 6.90709 4.99548L6.83506 4.8574C6.53009 4.27372 6.26615 3.77402 6.04249 3.41179C5.59199 2.68197 4.63411 1.80466 3.24844 1.56391C2.14894 2.37712 1.2648 3.46527 0.698327 4.7269Z" fill="#CAB167"/>
<path d="M4.40557 0.851422C5.48651 0.306678 6.70785 0 8.00098 0C8.2095 0 8.41631 0.00805762 8.62092 0.0236845L8.60798 0.0474911C11.5519 1.64424 12.0542 5.38152 11.0519 8.96594C11.0316 9.03858 11.0106 9.1111 10.9891 9.18325C10.9615 9.16555 10.9342 9.14736 10.9071 9.12843C10.5538 8.88231 10.1819 8.48211 9.80124 7.96606C9.56782 7.64962 9.3383 7.29947 9.11415 6.93102C8.97571 6.7037 8.83946 6.46954 8.70541 6.23208C8.38164 5.65816 8.07667 5.07423 7.7927 4.53058L7.7214 4.39421C7.54755 4.06141 7.38005 3.74228 7.22207 3.45513C7.10707 3.24625 6.99719 3.05433 6.89342 2.88634C6.43902 2.15016 5.5937 1.31266 4.40557 0.851422Z" fill="#CAB167"/>
<path d="M10.7667 0.490905C12.7638 2.72983 12.8614 6.20913 12.0151 9.23526C11.9998 9.2902 11.9841 9.34513 11.968 9.39995L11.9248 9.54523C12.5469 9.65059 13.2104 9.52289 13.8069 9.16201C14.742 8.59614 15.5385 7.43194 15.6455 5.63594C14.9095 3.25418 13.0927 1.3477 10.7667 0.490905Z" fill="#CAB167"/>
<path d="M16 8.18008C15.5852 8.98889 15.0006 9.60859 14.3245 10.0177C13.4828 10.5269 12.5108 10.6987 11.5988 10.5012L11.5344 10.6679C11.4916 10.7767 11.4477 10.8848 11.4023 10.9921C11.9998 11.0891 12.5364 11.1372 13.0133 11.1464C14.3743 11.1725 15.1918 10.8818 15.5791 10.5744C15.8349 9.82041 15.9817 9.01612 16 8.18008Z" fill="#CAB167"/>
<path d="M14.9672 11.9393C14.417 12.0866 13.7561 12.161 12.9943 12.1464C12.3919 12.1348 11.7165 12.0676 10.9667 11.9319C10.8915 12.0795 10.8141 12.2251 10.7345 12.3685C10.6458 12.5284 10.5545 12.6855 10.4605 12.8395C10.9427 12.9834 11.3842 13.1852 11.7319 13.4699C12.1094 13.7789 12.3628 14.1762 12.4459 14.6547C13.4836 13.9602 14.3494 13.0294 14.9672 11.9393Z" fill="#CAB167"/>
</svg>
