<svg width="16" height="16" viewBox="0 0 16 16" fill="none" xmlns="http://www.w3.org/2000/svg">
<g clip-path="url(#clip0_3014_6608)">
<path d="M3.80127 1.78052C4.81926 3.79792 5.33979 6.0297 5.31982 8.28931C5.31982 11.2434 4.48526 13.9311 3.1167 15.9338H1.49756C1.48104 15.9337 1.48096 15.9163 1.48096 15.8831C3.65049 14.5145 4.76901 11.1937 4.76904 8.0061C4.76929 7.95958 4.76742 7.91294 4.76709 7.86646C4.74735 5.98053 4.25556 4.12886 3.3335 2.48169L3.28369 2.39771C3.28561 2.39571 3.28763 2.39383 3.28955 2.39185C3.28757 2.38838 3.28568 2.38456 3.28369 2.3811C3.43211 2.16629 3.60012 1.96522 3.78467 1.78052H3.80127ZM5.31982 0.645752C6.12093 2.94893 6.57178 5.66939 6.57178 8.59009C6.58595 11.0764 6.23131 13.5514 5.52002 15.9338H4.06787L4.05127 15.9172C5.0257 13.922 5.64104 11.482 5.72607 8.83716C5.72719 8.80236 5.72905 8.76754 5.72998 8.73267L5.73682 8.2063C5.75106 6.27705 5.45428 4.3613 4.86182 2.53149C4.7333 2.1379 4.5913 1.74824 4.43506 1.36353L4.38525 1.22974C4.67043 1.00425 4.97817 0.808569 5.30322 0.645752H5.31982ZM6.97217 0.0949707C7.49454 -0.0405064 8.03528 -0.0914171 8.57373 -0.0554199C8.55704 1.94735 8.32394 13.0129 9.2085 15.7834H8.74072L8.6958 15.7375L8.64111 15.7336V15.6995L8.61768 15.6897C8.61145 15.6834 8.60791 15.6751 8.60791 15.6663V15.6194L8.55713 15.4993V15.4495C8.54083 15.4492 8.54053 15.4328 8.54053 15.4163V15.4065L8.5376 15.3997H8.47412L8.34033 15.3499L8.22412 15.2825L8.20752 15.2659L8.34033 15.3323L8.47412 15.3831H8.53076L8.52881 15.3792L8.35693 15.3323C8.23927 15.2805 8.14047 15.1937 8.07471 15.0833C8.06941 15.0743 8.06586 15.0641 8.06104 15.0549C8.07825 15.0991 8.09853 15.1424 8.12354 15.1829L8.10693 15.1663C8.0513 15.0855 8.01128 14.9943 7.98975 14.8987C7.9875 14.8835 7.98667 14.8681 7.98486 14.8528C7.96072 14.7764 7.94977 14.6962 7.95654 14.6155V14.2483H7.89014V14.2141H7.90674C7.92381 14.2137 7.94002 14.2089 7.95654 14.2053V14.1975H7.89014C7.90655 14.1811 7.90674 14.1809 7.90674 14.1643V14.1311C7.91572 14.1297 7.92424 14.1261 7.93311 14.1243L7.92334 14.1145H7.85693C7.87338 14.0981 7.87353 14.0977 7.87354 14.0813V14.0481C7.98142 14.0311 8.08145 13.9816 8.16162 13.9075C8.24187 13.8332 8.29854 13.7366 8.32373 13.6301L8.35693 13.5803H8.39014C8.39014 13.5846 8.39206 13.5889 8.39502 13.592C8.39815 13.5952 8.40329 13.5969 8.40771 13.5969H8.49072C8.49072 13.6136 8.49073 13.6301 8.50732 13.6301H8.55713C8.57382 13.6301 8.57373 13.5466 8.57373 13.4631C8.57373 13.4575 8.57374 13.452 8.57373 13.4465H8.39014C8.38793 13.4185 8.38268 13.3909 8.37646 13.3635H8.37354C8.37084 13.3581 8.36964 13.3523 8.36768 13.3469H8.35693C8.34148 13.2993 8.31932 13.254 8.29053 13.2131L8.18994 13.0959C8.12873 13.0456 8.05881 13.0072 7.98389 12.9827L7.90674 12.9631H7.89014V12.8821C7.88462 12.881 7.87909 12.88 7.87354 12.8792H7.85693V12.7795C7.85693 12.7739 7.85327 12.7625 7.8501 12.7493C7.82582 12.7028 7.84033 12.7442 7.84033 12.7288C7.8402 12.7248 7.84022 12.721 7.84033 12.717C7.83474 12.7009 7.82939 12.6856 7.82275 12.679C7.80634 12.6625 7.80615 12.6623 7.80615 12.6458C7.8051 12.617 7.81073 12.5879 7.82275 12.5618V12.5305C7.81849 12.5293 7.8128 12.5286 7.80615 12.5286C7.79745 12.5286 7.78889 12.5322 7.78271 12.5383C7.77657 12.5445 7.77307 12.5531 7.77295 12.5618C7.77295 12.5785 7.78955 12.5793 7.78955 12.5959H7.77295L7.70654 12.6292C7.70593 12.6576 7.70152 12.6859 7.68994 12.7122V12.7141C7.7011 12.6942 7.71198 12.679 7.72314 12.679H7.73975C7.74508 12.7187 7.7394 12.7595 7.72314 12.7961V12.8625L7.77295 12.8127H7.78955C7.80621 12.846 7.84019 12.846 7.84033 12.8625L7.83936 12.9465C7.83511 12.9464 7.83066 12.9447 7.82764 12.9417C7.82451 12.9385 7.82275 12.9334 7.82275 12.929L7.78955 12.8958C7.78083 12.8958 7.77231 12.8994 7.76611 12.9055C7.75996 12.9117 7.75647 12.9203 7.75635 12.929L7.68994 12.9631H7.65674L7.60596 13.0129C7.58937 13.0295 7.57296 13.046 7.58936 13.0461C7.43914 13.1184 7.32021 13.2432 7.25537 13.3967C7.25537 13.4134 7.25546 13.4133 7.23877 13.4133C7.22232 13.414 7.22217 13.4807 7.22217 13.5139H7.18896C7.17931 13.5054 7.17342 13.4926 7.17236 13.4797H7.08838C7.08838 13.4635 7.08832 13.4631 7.07178 13.4631H7.02197C7.00532 13.4633 6.98879 13.5303 6.98877 13.6135C6.98877 13.6366 6.99243 13.6596 6.99463 13.6809H7.05322C7.05402 13.6757 7.05518 13.6694 7.05518 13.6633H7.18896L7.20068 13.6809H7.23877V13.7307C7.25536 13.7473 7.25558 13.7803 7.27197 13.7971C7.28866 13.8138 7.28946 13.8478 7.30615 13.8645L7.40576 13.9973L7.53955 14.0813C7.58336 14.1127 7.63605 14.13 7.68994 14.1311V14.1643H7.70654L7.68799 14.2102C7.69416 14.2113 7.70032 14.2133 7.70654 14.2141V14.2483C7.70654 14.2646 7.70658 14.2649 7.72314 14.2815H7.65674L7.62256 14.3147V14.7825C7.63331 14.9107 7.6043 15.0391 7.53857 15.1497C7.47273 15.2604 7.37334 15.3479 7.25537 15.3997L7.07178 15.4495H7.05518V15.5334L6.97217 15.7336V15.7668H6.93896V15.8167C6.93896 15.8253 6.93526 15.8339 6.9292 15.8401C6.92294 15.8463 6.91364 15.8499 6.90479 15.8499H6.88818L6.80518 15.9338H6.3374C7.20527 13.1633 6.98886 2.09774 6.97217 0.0949707ZM10.2769 0.645752C10.6019 0.808583 10.9097 1.00424 11.1948 1.22974C11.0975 1.45422 11.005 1.68399 10.9175 1.91821C10.5962 2.8069 10.3455 3.71786 10.1675 4.64282C9.95509 5.77485 9.84229 6.97128 9.84229 8.2063C9.8423 11.0936 10.4597 13.7643 11.5278 15.9172L11.5112 15.9338H10.0601C9.34876 13.5514 8.99413 11.0764 9.0083 8.59009C9.0083 5.66938 9.45915 2.94894 10.2603 0.645752H10.2769ZM11.7954 1.79712C11.9658 1.9644 12.1169 2.15012 12.2476 2.34985C12.2638 2.36582 12.2806 2.38128 12.2964 2.39771L12.1167 2.72192C11.2503 4.35176 10.8012 6.17307 10.811 8.02271C10.811 9.38299 11.0157 10.7671 11.4165 12.0139C11.9217 13.5809 12.7402 14.9324 13.8647 15.7502H13.8628C13.9348 15.8022 14.0071 15.8533 14.0815 15.9006C14.0982 15.9173 14.0982 15.9338 14.0815 15.9338H12.4634C11.0948 13.9311 10.2603 11.2434 10.2603 8.28931C10.2429 6.03533 10.7634 3.8095 11.7788 1.79712H11.7954ZM8.64111 15.8H8.67432L8.72412 15.8333L8.7749 15.9006L8.72412 15.8665H8.64111V15.8ZM8.39014 13.4133H8.396C8.39442 13.4077 8.39155 13.4024 8.39014 13.3967V13.4133Z" fill="#CAB167"/>
</g>
<defs>
<clipPath id="clip0_3014_6608">
<rect width="16" height="16" fill="white"/>
</clipPath>
</defs>
</svg>
