<svg width="16" height="16" viewBox="0 0 16 16" fill="none" xmlns="http://www.w3.org/2000/svg">
<path fill-rule="evenodd" clip-rule="evenodd" d="M1.91519 6.09304C2.00161 2.72213 4.68342 0 8 0C11.3166 0 13.9984 2.72213 14.0848 6.09304C14.6273 6.31205 15.0778 6.74122 15.4006 7.24234C15.7744 7.82247 16 8.53267 16 9.21739C16 10.0299 15.6824 10.8463 15.173 11.4617C14.8373 11.8673 14.4064 12.1987 13.913 12.3775V13.2174C13.913 14.1779 13.1344 14.9565 12.1739 14.9565H11.7823C11.6278 15.5566 11.0831 16 10.4348 16H7.65217C6.88378 16 6.26087 15.3771 6.26087 14.6087C6.26087 13.8403 6.88378 13.2174 7.65217 13.2174H10.4348C11.0831 13.2174 11.6278 13.6608 11.7823 14.2609H12.1739C12.7502 14.2609 13.2174 13.7937 13.2174 13.2174V12.5189C13.179 12.5208 13.1403 12.5217 13.1014 12.5217H12.4638C11.9098 12.5217 11.4783 12.062 11.4783 11.5169V6.91787C11.4783 6.49723 11.7352 6.12742 12.1072 5.98048C11.9672 3.7548 10.173 2.00966 8 2.00966C5.82701 2.00966 4.0328 3.7548 3.89284 5.98048C4.26477 6.12742 4.52174 6.49723 4.52174 6.91787V11.5169C4.52174 12.062 4.09023 12.5217 3.53623 12.5217H2.89855C2.06499 12.5217 1.33639 12.0772 0.826963 11.4617C0.317619 10.8463 0 10.0299 0 9.21739C0 8.53267 0.225646 7.82247 0.599396 7.24234C0.922248 6.74122 1.37267 6.31205 1.91519 6.09304Z" fill="white" fill-opacity="0.95"/>
</svg>
