<svg width="24" height="24" viewBox="0 0 24 24" fill="none" xmlns="http://www.w3.org/2000/svg">
<path d="M11.5 6.5C10.3954 6.5 9.5 7.39543 9.5 8.5V8.58289H8.5V8.5C8.5 6.84315 9.84315 5.5 11.5 5.5C13.1594 5.5 14.5 6.8556 14.5 8.50988C14.5 9.48596 14.0452 10.4128 13.2678 11.0065L12.815 11.3522C12.3014 11.7444 12 12.3537 12 13H11C11 12.042 11.4467 11.1389 12.2081 10.5575L12.6608 10.2117C13.1889 9.80848 13.5 9.17637 13.5 8.50988C13.5 7.40274 12.602 6.5 11.5 6.5Z" fill="#CAB167"/>
<path d="M12 14V15H11V14H12Z" fill="#CAB167"/>
<path fill-rule="evenodd" clip-rule="evenodd" d="M24 3C24 1.89543 23.1046 1 22 1H2C0.895431 1 0 1.89543 0 3V17C0 18.1046 0.89543 19 2 19H5C5.55228 19 6 19.4477 6 20V21.1958C6 21.9812 6.86395 22.46 7.53 22.0438L12.1568 19.152C12.3158 19.0527 12.4994 19 12.6868 19H22C23.1046 19 24 18.1046 24 17V3ZM2 2H22C22.5523 2 23 2.44771 23 3V17C23 17.5523 22.5523 18 22 18H12.6868C12.312 18 11.9447 18.1053 11.6268 18.304L7 21.1958V20C7 18.8954 6.10457 18 5 18H2C1.44772 18 1 17.5523 1 17V3C1 2.44772 1.44772 2 2 2Z" fill="#CAB167"/>
</svg>
