<svg width="16" height="16" viewBox="0 0 16 16" fill="none" xmlns="http://www.w3.org/2000/svg">
<path fill-rule="evenodd" clip-rule="evenodd" d="M2 0C0.895509 0 0 0.924317 0 2.06458V6.88172C0 9.04774 0.988038 11.0874 2.66675 12.3871L6.80006 15.5871C7.51124 16.1377 8.48878 16.1376 9.19996 15.5871L13.3333 12.3871C15.012 11.0874 16 9.04786 16 6.88172V2.06458C16 0.924317 15.1045 0 14 0H2ZM8.42066 2.65503C8.22388 2.34863 7.77613 2.34863 7.57935 2.65503L6.40064 4.48999C6.33301 4.59534 6.22828 4.67151 6.10694 4.70337L3.99756 5.25721C3.64551 5.34974 3.50708 5.77564 3.73755 6.05738L5.11866 7.74537C5.198 7.84229 5.23804 7.96558 5.23072 8.09071L5.10572 10.268C5.08472 10.6315 5.44703 10.8947 5.78638 10.7625L7.81837 9.97071C7.93531 9.9253 8.0647 9.9253 8.18165 9.97071L10.2136 10.7625C10.553 10.8947 10.9153 10.6315 10.8943 10.268L10.7693 8.09071C10.762 7.96558 10.802 7.84229 10.8814 7.74537L12.2625 6.05738C12.4929 5.77564 12.3545 5.34974 12.0025 5.25721L9.89308 4.70337C9.77174 4.67151 9.667 4.59534 9.59937 4.48999L8.42066 2.65503Z" fill="#CAB167"/>
</svg>
