<svg width="134" height="14" viewBox="0 0 134 14" fill="none" xmlns="http://www.w3.org/2000/svg">
<g clip-path="url(#clip0_3014_9529)">
<path d="M43.6948 0.857831L43.2533 2.91274C43.2286 3.0282 43.1266 3.11005 43.0086 3.11005H40.2708C40.112 3.11005 39.9925 2.96244 40.026 2.80605L40.4675 0.75114C40.4923 0.635679 40.5943 0.553833 40.7123 0.553833H43.45C43.6089 0.553833 43.7283 0.701448 43.6948 0.857831Z" fill="#DD3735"/>
<path d="M39.7594 4.21058L38.4204 10.5317C38.3898 10.6749 38.4991 10.8109 38.6448 10.8109H41.4233C41.5326 10.8109 41.6258 10.7349 41.6477 10.6282L42.9867 4.30705C43.0173 4.16382 42.908 4.02789 42.7623 4.02789H39.9838C39.8745 4.02789 39.7812 4.10389 39.7594 4.21058Z" fill="white"/>
<path d="M49.3408 3.8642C48.538 3.8642 47.8823 4.0995 47.3738 4.57158C47.2281 4.7075 47.0678 4.90334 46.9251 5.1825C46.9221 5.1898 46.8799 5.26727 46.8682 5.28042C46.8566 5.29357 46.8478 5.29503 46.842 5.29211C46.8333 5.28919 46.8274 5.27896 46.826 5.26873C46.8216 5.23511 46.8362 5.15911 46.8362 5.15911L47.0329 4.30119C47.0635 4.15943 46.9556 4.02789 46.8114 4.02789H44.2033C44.097 4.02789 44.0037 4.10243 43.9819 4.20766L42.6414 10.5361C42.6108 10.6779 42.7186 10.8094 42.8629 10.8094H45.5496C45.656 10.8094 45.7492 10.7349 45.7711 10.6296L46.5608 6.90418C46.622 6.61772 46.6905 6.41457 46.7677 6.29326C46.8886 6.08572 47.18 5.98049 47.4379 5.98049C47.6958 5.98049 47.9289 6.08426 47.9697 6.29326C47.9872 6.41457 47.9654 6.61918 47.9042 6.90418L47.1349 10.5361C47.1043 10.6779 47.2121 10.8094 47.3563 10.8094H50.0475C50.1538 10.8094 50.2471 10.7349 50.2689 10.6296L51.2306 6.09303C51.5453 4.60812 50.9159 3.86566 49.3437 3.86566L49.3408 3.8642Z" fill="white"/>
<path d="M6.94419 6.89103C6.59888 6.70833 5.9709 6.55634 5.06171 6.43503C4.36234 6.34734 4.03159 6.22164 4.06947 6.05649C4.14233 5.74372 4.59109 5.58734 5.41577 5.58734C6.02772 5.58734 6.65861 5.6838 7.30845 5.87234C7.45998 5.91619 7.61734 5.82849 7.65085 5.67357L7.94663 4.32312C7.98014 4.16673 7.87086 4.01327 7.7135 3.99427C6.87717 3.8905 6.16177 3.8642 5.47551 3.8642C2.69404 3.8642 1.12482 4.62858 0.767847 6.1588C0.588633 6.92318 0.818843 7.48002 1.45848 7.82787C1.78777 8.00179 2.41138 8.17133 3.3293 8.33648C4.02285 8.44902 4.34631 8.6054 4.29968 8.80563C4.2312 9.10086 3.76058 9.24847 2.88782 9.24847C2.01506 9.24847 1.28946 9.0994 0.693539 8.79978C0.542008 8.72378 0.359879 8.82025 0.320539 8.9854L0.00727808 10.3139C-0.0276906 10.4615 0.0670163 10.6106 0.212719 10.6442C1.1729 10.8635 2.08792 10.9716 2.9563 10.9716C4.01848 10.9716 4.95535 10.8021 5.76546 10.463C6.81452 10.0377 7.44104 9.3844 7.64648 8.50748C7.82132 7.76064 7.58674 7.22133 6.94419 6.89103Z" fill="white"/>
<path d="M22.2765 3.8642C19.4965 3.8642 17.8661 5.00711 17.3809 7.29441C17.1303 8.47679 17.2949 9.38586 17.8748 10.0202C18.4547 10.6545 19.4193 10.9716 20.7699 10.9716C22.1206 10.9716 23.2221 10.6545 24.0759 10.0202C24.9283 9.38586 25.4805 8.47679 25.7311 7.29441C26.2149 5.00857 25.0638 3.8642 22.2765 3.8642ZM21.1866 8.94594H21.1852L21.156 8.94155C21.1429 8.94155 21.1327 8.94448 21.1269 8.94594C20.8238 8.94594 20.6665 8.80855 20.6315 8.51332C20.6024 8.27948 20.6577 7.8761 20.7962 7.31195C20.9113 6.8428 21.0395 6.49934 21.1764 6.29034C21.2799 6.13249 21.4125 6.02434 21.5815 5.95711C21.6762 5.91326 21.768 5.89134 21.8598 5.89134L21.8831 5.89426C21.8918 5.89426 21.8991 5.89426 21.9093 5.89134C22.0871 5.89134 22.2139 5.94395 22.2969 6.05065C22.4586 6.25672 22.4645 6.67034 22.3158 7.27687C22.1964 7.76502 22.0798 8.12017 21.9691 8.33209C21.8467 8.5674 21.6981 8.73255 21.5101 8.83925C21.3994 8.91086 21.293 8.9474 21.1837 8.9474L21.1866 8.94594Z" fill="white"/>
<path d="M60.2408 4.02789H57.6415C57.5366 4.02789 57.4462 4.10096 57.4244 4.20327L57.1767 5.29211C57.1767 5.29211 57.165 5.34327 57.1374 5.34327C57.1097 5.34327 57.1097 5.30234 57.1097 5.28919C57.1126 4.81565 56.9683 4.52335 56.6172 4.26319C56.2558 3.9972 55.7881 3.8642 55.2126 3.8642C54.232 3.8642 53.4176 4.22081 52.7677 4.93258C52.1878 5.55811 51.7871 6.39264 51.5671 7.43472C51.3602 8.40809 51.4229 9.1944 51.7551 9.79363C52.1135 10.4703 52.7721 10.8094 53.7337 10.8094C54.5803 10.8094 55.3219 10.5127 55.9601 9.91786C56.0388 9.84478 56.1539 9.85209 56.1305 9.93247C55.7911 11.1412 54.9562 11.7448 53.623 11.7448C52.7604 11.7448 52.1529 11.6074 51.4345 11.4495C51.318 11.4232 51.2 11.4963 51.1708 11.6132L50.8022 13.3013C50.7731 13.4168 50.8386 13.5351 50.9523 13.5688C51.8061 13.8158 52.8624 13.9999 54.1461 13.9999C57.0048 13.9999 58.7153 12.5091 59.2194 10.1312L60.4565 4.29535C60.4856 4.1565 60.3807 4.02643 60.2394 4.02643L60.2408 4.02789ZM56.6347 7.21987L56.6259 7.27395C56.6201 7.3061 56.6157 7.33972 56.6084 7.37479C56.5429 7.68318 56.4511 7.9404 56.3331 8.1421C56.1101 8.58932 55.8202 8.8144 55.4749 8.8144C55.2855 8.8144 55.1383 8.74863 55.0363 8.62002C54.8542 8.39056 54.8236 7.96817 54.9474 7.43325C55.1616 6.51687 55.5754 6.03311 56.1437 6.03311C56.336 6.03311 56.4729 6.08718 56.5633 6.19826C56.7119 6.38095 56.7352 6.72441 56.6332 7.21841L56.6347 7.21987Z" fill="white"/>
<path d="M37.1586 6.18802H38.2149C38.2849 6.18802 38.3461 6.13979 38.3621 6.0711L38.7934 4.21349C38.8152 4.11849 38.7438 4.02788 38.6462 4.02788H37.6438C37.5461 4.02788 37.4748 3.93726 37.4966 3.8408L38.0007 1.68943C38.027 1.57689 37.9221 1.47605 37.8113 1.5082L34.6816 2.41435C34.6292 2.42896 34.5898 2.47135 34.5767 2.52396L34.2329 3.91242C34.2154 3.97965 34.1556 4.02788 34.0857 4.02788H33.2902C33.2902 4.02788 33.3149 4.02788 33.21 4.02788C33.1051 4.02788 33.1037 4.13311 33.1037 4.13311L33.0964 4.16526L33.0833 4.22519L32.703 6.00387C32.6826 6.09887 32.754 6.18802 32.8516 6.18802H33.5991C33.6967 6.18802 33.7681 6.27864 33.7462 6.37364L33.2931 8.32624C32.9186 10.0903 33.5626 10.9716 35.2222 10.9716C35.8575 10.9716 36.5627 10.8693 37.3349 10.6691C37.3917 10.6545 37.4354 10.6077 37.4485 10.5521L37.7982 8.92254C37.7982 8.92254 37.8725 8.67701 37.6613 8.73985C37.6525 8.74278 37.6423 8.74424 37.6321 8.74716C37.4762 8.78224 37.3159 8.8027 37.1528 8.8027C36.6792 8.8027 36.5044 8.50601 36.6311 7.91117L37.0129 6.3064C37.0289 6.23771 37.0901 6.18948 37.16 6.18948L37.1586 6.18802Z" fill="white"/>
<path d="M32.263 4.06296C32.2469 4.03811 32.2207 4.02203 32.1901 4.02203C32.1857 4.02203 32.1712 4.02203 32.1683 4.02203C31.4296 4.03811 30.6777 4.23834 30.1619 4.95741C30.1343 4.99687 30.0833 5.05095 29.9711 5.29357C29.9652 5.30526 29.9623 5.31403 29.9434 5.3111C29.9128 5.30672 29.958 5.04949 29.958 5.04949L30.0891 4.3158C30.1153 4.16526 30.0002 4.02788 29.8487 4.02788H27.3076C27.1925 4.02788 27.092 4.10826 27.0687 4.22226L25.7355 10.5142C25.7034 10.6662 25.8185 10.8094 25.9744 10.8094H28.7035C28.8215 10.8094 28.922 10.7246 28.9439 10.6092L29.1799 9.31716C29.2702 8.89331 29.4771 8.04124 29.8647 7.5414C30.1124 7.14971 30.4825 6.84279 30.9312 6.67179C31.0551 6.61333 31.4135 6.51979 31.5767 6.52856C31.5811 6.52856 31.5869 6.52856 31.5913 6.52856C31.6612 6.52856 31.7035 6.50517 31.7253 6.4774C31.7501 6.44525 31.7647 6.36925 31.7647 6.36925L32.2746 4.13749C32.2746 4.13749 32.2863 4.09219 32.2659 4.06296H32.263Z" fill="white"/>
<path d="M75.1273 5.40021C75.12 5.40021 75.1113 5.40021 75.104 5.40021C74.6567 5.40021 74.2137 5.62967 73.9456 6.00236C73.797 6.20843 73.6965 6.44082 73.6455 6.6922C73.6397 6.71558 73.6455 6.74043 73.663 6.75943C73.679 6.77989 73.7023 6.79158 73.7285 6.79158H75.7159C75.7524 6.79158 75.7873 6.76382 75.7961 6.72874C75.9199 6.23182 75.8995 5.86936 75.7334 5.65159C75.611 5.49082 75.407 5.40605 75.1288 5.40167L75.1273 5.40021Z" fill="white"/>
<path d="M75.7145 6.86176H73.7271C73.6805 6.86176 73.6353 6.8413 73.6062 6.8033C73.577 6.7653 73.5654 6.71999 73.5756 6.67468C73.6295 6.41453 73.7344 6.17338 73.8874 5.95999C74.1686 5.56977 74.6334 5.32861 75.1025 5.32861H75.1273C75.4289 5.33446 75.6504 5.428 75.7873 5.60777C75.9665 5.84307 75.9928 6.22599 75.8616 6.74484C75.8456 6.81353 75.7815 6.86176 75.713 6.86176H75.7145ZM75.1127 5.47184C74.6785 5.47184 74.2574 5.69107 74.0025 6.0433C73.8611 6.24061 73.7635 6.46276 73.714 6.70538L73.7256 6.71853H75.713C75.8427 6.2333 75.8267 5.89276 75.6737 5.69253C75.5644 5.55077 75.3808 5.47477 75.1244 5.47038H75.1113L75.1127 5.47184Z" fill="white"/>
<path d="M64.5478 7.36898C64.4138 7.93606 64.4385 8.34236 64.6207 8.57475C64.7343 8.71944 64.9062 8.79398 65.1321 8.79544C65.7149 8.80128 66.0981 8.33213 66.3356 7.31783C66.4755 6.72591 66.4565 6.3123 66.2802 6.08576C66.1739 5.94984 66.0107 5.88115 65.7936 5.87822C65.2006 5.87238 64.7809 6.37368 64.5464 7.36752L64.5478 7.36898Z" fill="white"/>
<path d="M65.1437 8.86703H65.1321C64.8829 8.8641 64.6921 8.7808 64.5653 8.61857C64.37 8.36718 64.3409 7.94188 64.4793 7.35288C64.7212 6.32689 65.1598 5.80804 65.7848 5.80804H65.7965C66.0369 5.81097 66.219 5.88989 66.3385 6.04335C66.5279 6.28596 66.5512 6.7215 66.407 7.33534C66.1622 8.38034 65.76 8.86849 65.1452 8.86849L65.1437 8.86703ZM64.6177 7.38504C64.4895 7.93019 64.5099 8.31603 64.6775 8.53088C64.7766 8.65657 64.9295 8.72234 65.1335 8.72526H65.1423C65.6814 8.72526 66.0398 8.27218 66.2671 7.30319C66.4011 6.73319 66.388 6.33858 66.2248 6.1325C66.133 6.01558 65.9888 5.9542 65.7936 5.95274H65.7848C65.2341 5.95274 64.8407 6.43504 64.6163 7.38796L64.6177 7.38504Z" fill="white"/>
<path d="M82.0977 11.2142C81.4639 11.2142 80.766 11.1031 80.2167 10.7918C79.5377 10.4074 79.3396 9.53928 79.6266 8.21367L80.052 6.16022C80.0608 6.12222 80.052 6.08276 80.0258 6.05207C80.0011 6.02138 79.9646 6.00384 79.9267 6.00384H79.0948C79.0423 6.00384 78.9928 5.98045 78.9593 5.93953C78.9258 5.89861 78.9127 5.84599 78.9243 5.79338L79.274 4.14331C79.2915 4.06293 79.3629 4.00446 79.4445 4.00446H80.4061C80.4658 4.00446 80.5183 3.96208 80.5314 3.90362L80.8971 2.26671C80.9117 2.20386 80.9583 2.15417 81.0195 2.13663L84.1492 1.23048C84.2119 1.21294 84.2745 1.23048 84.3182 1.2714C84.3634 1.31379 84.3823 1.37517 84.3692 1.43656L83.8418 3.84808C83.833 3.88754 83.8418 3.92554 83.8665 3.95623C83.8913 3.98693 83.9277 4.00446 83.9671 4.00446H85.0788C85.1327 4.00446 85.1822 4.02931 85.2158 4.0717C85.2478 4.11116 85.2609 4.16377 85.2493 4.21785L84.901 5.86645C84.885 5.94684 84.8122 6.0053 84.7306 6.0053H83.4892C83.428 6.0053 83.3755 6.04915 83.3639 6.10761L82.9617 8.03975C82.8933 8.36567 82.9151 8.60098 83.0288 8.74129C83.1162 8.84944 83.2619 8.90351 83.4615 8.90351C83.6713 8.90351 83.9044 8.87721 84.1026 8.83044L84.1944 8.81144L84.4625 8.72813L84.3896 8.87721C84.3649 8.9269 84.3182 9.02044 84.2876 9.17974L84.0123 10.6018C84.0006 10.653 83.9685 10.7553 83.8899 10.8094C83.8126 10.862 83.7296 10.9102 83.6276 10.9584C83.3377 11.0973 82.7534 11.2142 82.1021 11.2142H82.0977ZM79.4445 4.14623C79.4299 4.14623 79.4153 4.15793 79.4124 4.17254L79.0627 5.82115C79.0598 5.83138 79.0627 5.84161 79.0686 5.84745C79.0744 5.85622 79.0846 5.86061 79.0948 5.86061H79.9267C80.0083 5.86061 80.0841 5.89715 80.1366 5.95999C80.189 6.0243 80.2094 6.10615 80.1919 6.18653L79.7665 8.23998C79.4926 9.49836 79.6689 10.3139 80.2866 10.6647C81.3576 11.2712 83.0113 11.0914 83.562 10.8269C83.6567 10.7816 83.734 10.7377 83.8054 10.688C83.8389 10.6647 83.8622 10.6062 83.8695 10.5609V10.558L84.1434 9.14905C84.158 9.07013 84.1769 9.00728 84.1958 8.95175L84.1142 8.96782C83.9219 9.01459 83.6771 9.04236 83.4571 9.04236C83.2123 9.04236 83.0288 8.96928 82.9137 8.82752C82.7723 8.65213 82.7403 8.3759 82.8189 8.00613L83.2211 6.07545C83.2459 5.94976 83.3566 5.85915 83.4848 5.85915H84.7262C84.7408 5.85915 84.7553 5.84745 84.7582 5.83284L85.1079 4.18277C85.1109 4.17254 85.1079 4.16377 85.1021 4.15646C85.0948 4.14769 85.0861 4.14331 85.0759 4.14331H83.9642C83.8811 4.14331 83.8039 4.10677 83.7529 4.041C83.7019 3.9767 83.6815 3.89339 83.7005 3.813L84.2279 1.40294C84.2308 1.39125 84.2279 1.37956 84.2192 1.37225C84.2075 1.36056 84.1929 1.36202 84.1871 1.36494L81.0589 2.27109C81.0472 2.27401 81.0385 2.28424 81.0355 2.29594L80.6698 3.93285C80.6421 4.05562 80.5314 4.14477 80.4061 4.14477H79.4445V4.14623ZM74.4979 11.1046C74.3871 11.1046 74.2749 11.1017 74.1613 11.0973C72.7654 11.0373 71.6814 10.6603 71.1117 10.0347C70.5304 9.39751 70.3614 8.47382 70.6134 7.28852C71.0972 5.00123 72.7509 3.84077 75.528 3.84077C76.6266 3.84077 77.4207 4.13308 77.8869 4.70892C78.4158 5.36369 78.5338 6.40576 78.238 7.80444L78.2249 7.86583C78.1754 8.03537 78.0253 8.22683 77.7587 8.22683H73.7621C73.6936 8.22683 73.6338 8.2809 73.6324 8.34521C73.6266 8.56006 73.6907 8.73836 73.8233 8.87575C74.0753 9.13736 74.5663 9.26451 75.324 9.26597C76.1093 9.2689 76.6761 9.21336 77.3012 9.06721C77.3609 9.05551 77.4236 9.07159 77.4658 9.11398C77.5081 9.15782 77.5256 9.21774 77.5124 9.27621L77.1773 10.5083C77.1657 10.5624 77.1249 10.6091 77.0695 10.631C76.207 10.9555 75.3998 11.1046 74.4964 11.1046H74.4979ZM75.5294 3.984C72.8296 3.984 71.2225 5.10646 70.7533 7.31922C70.5129 8.45629 70.6688 9.33905 71.2181 9.93974C71.763 10.5375 72.8106 10.8985 74.1686 10.9555C75.187 10.9964 76.0714 10.8547 77.0214 10.498C77.0316 10.4937 77.0389 10.4849 77.0418 10.4747L77.3769 9.24113C77.3784 9.23382 77.3769 9.22359 77.3682 9.21628C77.3595 9.20897 77.3493 9.20459 77.3347 9.20751C76.6994 9.35659 76.1195 9.4209 75.3254 9.4092C74.5285 9.4092 74.0039 9.26597 73.7227 8.97513C73.5624 8.80852 73.4852 8.59659 73.4925 8.34229C73.4954 8.20198 73.6178 8.08652 73.7635 8.08652H77.7601C78.0035 8.08652 78.0763 7.87606 78.088 7.83367L78.0996 7.77667C78.3867 6.42184 78.2774 5.42069 77.7762 4.801C77.3391 4.25877 76.5829 3.984 75.528 3.984H75.5294ZM65.8533 10.995C64.8421 10.995 64.2331 10.5667 63.9912 9.6869C63.9723 9.61674 63.9417 9.60067 63.9329 9.60067C63.8674 9.60067 63.8514 9.6869 63.8514 9.6869L63.6386 10.6939C63.6211 10.7743 63.5497 10.8327 63.4682 10.8327H60.8703C60.8178 10.8327 60.7683 10.8094 60.7348 10.7684C60.7013 10.7275 60.6896 10.6734 60.6998 10.6223L62.7047 1.15886C62.7207 1.07848 62.7935 1.02002 62.8751 1.02002H65.814C65.8664 1.02002 65.916 1.0434 65.9495 1.08433C65.983 1.12525 65.9961 1.17786 65.9844 1.23048L65.3084 4.41954C65.2967 4.47362 65.3186 4.52623 65.3667 4.554C65.4133 4.58323 65.4716 4.57738 65.5138 4.54085C66.0631 4.07608 66.71 3.84077 67.4356 3.84077C68.3987 3.84077 69.0719 4.19154 69.4391 4.88284C69.7596 5.49376 69.815 6.31076 69.6037 7.31191C69.3749 8.38906 68.9641 9.25721 68.3827 9.89151C67.7212 10.6237 66.8703 10.995 65.8548 10.995H65.8533ZM63.9329 9.4589C63.9606 9.4589 64.0786 9.47059 64.1267 9.65036C64.3497 10.46 64.9135 10.8532 65.8533 10.8532C66.7931 10.8532 67.6425 10.498 68.2763 9.79651C68.8402 9.17974 69.2394 8.33498 69.4624 7.28268C69.6678 6.31515 69.6168 5.5303 69.3108 4.95007C68.9713 4.30846 68.339 3.984 67.4327 3.984C66.7421 3.984 66.1272 4.20762 65.6042 4.65046C65.5138 4.72646 65.3914 4.73815 65.2909 4.67677C65.1918 4.61685 65.1437 4.50431 65.167 4.39031L65.8431 1.20271C65.846 1.19248 65.8431 1.18225 65.8373 1.17494C65.8314 1.16617 65.8227 1.16179 65.8111 1.16179H62.8722C62.8577 1.16179 62.8431 1.17348 62.8402 1.1881L60.8353 10.65C60.8324 10.6603 60.8353 10.669 60.8426 10.6778C60.8484 10.6851 60.8572 10.6895 60.8674 10.6895H63.4652C63.4798 10.6895 63.4944 10.6778 63.4973 10.6632L63.71 9.66059C63.726 9.56413 63.8018 9.4589 63.93 9.4589H63.9329Z" fill="white"/>
<path d="M16.5635 4.96034C16.2124 4.22958 15.529 3.8642 14.5164 3.8642C13.7325 3.8642 13.0812 4.13458 12.545 4.67388C12.5421 4.67681 12.5392 4.68119 12.5348 4.68412C12.3454 4.87411 12.1589 5.23365 12.1545 5.2395C12.1516 5.24242 12.1487 5.25119 12.1472 5.25411C12.1166 5.29357 12.1152 5.30234 12.0788 5.3038C12.0758 5.3038 12.0744 5.3038 12.0715 5.3038C12.0525 5.3038 12.0467 5.27603 12.0482 5.2395C12.0496 5.18104 12.0686 5.10211 12.0686 5.10211L12.1822 4.59204L12.2332 4.33481C12.2653 4.17404 12.1429 4.02643 11.9797 4.02643H9.48379C9.3614 4.02643 9.2565 4.11266 9.23173 4.23104L7.32448 13.2355C7.29097 13.3963 7.41336 13.5483 7.57654 13.5483H10.2939C10.4178 13.5483 10.5241 13.4606 10.5474 13.3378L11.0865 10.5215C11.0938 10.482 11.1055 10.3929 11.12 10.2979C11.1332 10.254 11.1521 10.2248 11.1914 10.2058C11.2206 10.1912 11.2861 10.1955 11.3182 10.235C11.5265 10.4849 11.8092 10.6705 12.1341 10.7933C12.1778 10.8108 12.2216 10.8269 12.2667 10.843C12.3192 10.8591 12.3702 10.8722 12.4241 10.8839C12.631 10.9365 12.8481 10.9716 13.0885 10.9716C14.0472 10.9716 14.8529 10.6282 15.5086 9.94124C16.087 9.33178 16.4819 8.52794 16.6932 7.52825C16.9219 6.45111 16.8797 5.59465 16.5679 4.96034H16.5635ZM13.4032 7.41864C13.1657 8.41394 12.7694 8.91963 12.2259 8.91963C12.0351 8.91963 11.8879 8.85678 11.7888 8.73109C11.6125 8.50748 11.5877 8.08071 11.7189 7.53118C11.8048 7.17018 11.9199 6.87349 12.0613 6.64549C12.2259 6.34734 12.4314 6.18511 12.6965 6.14711C12.7694 6.12957 12.8408 6.12226 12.9151 6.12226C13.122 6.12226 13.2677 6.18072 13.3609 6.29911C13.5183 6.49934 13.5314 6.87641 13.4017 7.4201L13.4032 7.41864Z" fill="white"/>
<path d="M86.1249 3.24008L85.0467 3.23423C84.9506 3.23423 84.8792 3.14508 84.8996 3.05154L85.4897 0.182556C85.513 0.0714798 85.4095 -0.0249812 85.3003 0.00571092L80.2808 1.43509C80.2269 1.45116 80.1861 1.49501 80.1744 1.54909L79.8393 3.12023C79.8248 3.19039 79.7621 3.24008 79.6907 3.24008H78.8544C78.7815 3.24008 78.7189 3.29123 78.7058 3.36285L78.5936 4.0293L78.5557 4.25438C78.5557 4.25438 78.5207 4.07461 78.3328 3.87C78.1069 3.61277 77.747 3.42862 77.4411 3.29415C76.9092 3.06323 76.2711 2.94631 75.5294 2.94631C72.8033 2.94631 71.3113 3.96792 70.5027 5.21314C70.4371 4.94714 70.3482 4.69576 70.2273 4.4663C69.949 3.94015 69.4274 3.34677 68.4818 3.08516C68.4497 3.07639 67.4735 2.83085 66.6663 3.18016C66.3764 3.30585 66.1826 3.48708 66.1826 3.48708L66.1753 3.48123C66.1753 3.48123 66.627 2.711 66.6882 2.3807L66.8339 1.50963L67.0889 0.306786C67.1093 0.211787 67.0364 0.122633 66.9403 0.122633H62.1321C62.0607 0.122633 61.998 0.172325 61.9834 0.242479L59.591 11.5386C59.5706 11.6336 59.6435 11.7228 59.7396 11.7228H63.6911C63.9038 11.7228 63.9242 11.5182 63.9446 11.4305C63.9912 11.2259 64.0684 10.8868 64.0684 10.8444C64.0684 10.7845 64.1107 10.745 64.1224 10.8152C64.1457 10.9701 64.2098 11.1323 64.3161 11.2785C64.3832 11.372 64.5624 11.5766 64.9937 11.7301C65.2618 11.8266 65.5575 11.885 65.8533 11.885C67.1297 11.885 68.2035 11.4159 69.0413 10.4893C69.2526 10.2583 69.4391 9.99673 69.6095 9.71466C69.6736 9.60797 69.831 9.61381 69.8776 9.72781C70.016 10.0625 70.2069 10.365 70.4546 10.6354C71.2123 11.4641 72.56 11.9596 74.1715 11.9596C76.2536 11.9596 77.5343 11.3399 77.8155 11.1893C77.8534 11.1689 77.8796 11.1323 77.8898 11.0914L78.2264 9.86081C78.2264 9.86081 78.257 9.64743 78.477 9.64743C78.5834 9.64743 78.6402 9.71612 78.6679 9.77458C78.6839 9.80966 78.7247 9.95289 78.7626 10.0903C78.8252 10.3227 79.0992 11.049 79.7956 11.451C80.3274 11.7579 81.0457 11.8909 81.222 11.9084C83.2502 12.1072 84.3663 11.5065 84.6242 11.3457C84.6606 11.3223 84.6854 11.2873 84.6941 11.2449L85.3134 8.17128C85.3338 8.06751 85.2464 7.97544 85.1429 7.99151L84.1725 8.06751C83.9365 8.10113 83.8272 7.9959 83.8549 7.78544L84.0356 6.88514C84.0501 6.81352 84.1113 6.76237 84.1842 6.76237H85.4591C85.5319 6.76237 85.5946 6.71267 85.6077 6.64106L86.2765 3.41838C86.2954 3.32485 86.224 3.23715 86.1279 3.23715L86.1249 3.24008ZM69.5323 7.29729C69.3065 8.36128 68.9014 9.2192 68.3288 9.84327C67.6804 10.5594 66.847 10.9233 65.8533 10.9233C64.8596 10.9233 64.2914 10.5127 64.0582 9.66789C64.0262 9.54658 63.9577 9.52904 63.9286 9.52904C63.8295 9.52904 63.7872 9.6255 63.7785 9.6752L63.5658 10.6778C63.5556 10.726 63.5133 10.7611 63.4638 10.7611H60.8659C60.8338 10.7611 60.8047 10.7465 60.7843 10.7217C60.7654 10.6968 60.7566 10.6661 60.7639 10.6354L62.7688 1.17347C62.779 1.12524 62.8212 1.09163 62.8708 1.09163H65.8096C65.8417 1.09163 65.8708 1.10624 65.8912 1.13109C65.9101 1.15594 65.9189 1.18663 65.9116 1.21732L65.2355 4.40638C65.218 4.48969 65.253 4.57299 65.3259 4.61684C65.3987 4.66069 65.4891 4.65338 65.5561 4.59784C66.0923 4.14476 66.7232 3.91384 67.4313 3.91384C68.3652 3.91384 69.0194 4.25146 69.372 4.91791C69.6853 5.51422 69.7377 6.31514 69.5294 7.29875L69.5323 7.29729ZM78.1696 7.78982L78.1565 7.85121C78.1535 7.8629 78.0749 8.15667 77.7601 8.15667H73.7635C73.6557 8.15667 73.5654 8.23997 73.5624 8.34374C73.5566 8.57759 73.6266 8.77343 73.7737 8.92543C74.0403 9.20166 74.5474 9.33612 75.3254 9.33758C76.1297 9.34343 76.7053 9.28058 77.3187 9.13589C77.3536 9.12858 77.3915 9.13735 77.4177 9.16366C77.444 9.18997 77.4527 9.22505 77.4454 9.25866L77.1118 10.4878C77.1045 10.5229 77.0797 10.5507 77.0462 10.5623C76.0816 10.9248 75.1929 11.0651 74.1657 11.0257C72.7902 10.9672 71.7237 10.5989 71.1656 9.9865C70.6003 9.36681 70.4386 8.46359 70.6834 7.30313C71.1598 5.05238 72.7902 3.91092 75.5294 3.91092C76.6062 3.91092 77.3813 4.19446 77.833 4.75422C78.3488 5.39291 78.461 6.41306 78.1696 7.78982ZM84.8282 5.85037C84.818 5.8986 84.7757 5.93222 84.7262 5.93222H83.4848C83.3901 5.93222 83.3085 5.99945 83.2896 6.09152L82.8874 8.02367C82.8146 8.37151 82.8408 8.62728 82.969 8.78512C83.071 8.91082 83.2342 8.97366 83.4571 8.97366C83.68 8.97366 83.9088 8.94735 84.1142 8.89912C84.1172 8.89912 84.1186 8.89912 84.1215 8.89912L84.2046 8.88012L84.3211 8.84505C84.2891 8.90935 84.2439 9.00435 84.2133 9.16512L83.9394 10.577C83.9394 10.577 83.919 10.6997 83.8447 10.7494C83.7733 10.7991 83.6917 10.8444 83.5912 10.8941C83.0302 11.163 81.3444 11.3501 80.2502 10.7304C79.6018 10.3621 79.4153 9.52027 79.6951 8.22828L80.1205 6.17337C80.1336 6.11491 80.1176 6.05352 80.0797 6.00675C80.0419 5.95999 79.985 5.93368 79.9253 5.93368H79.0933C79.0627 5.93368 79.0321 5.91906 79.0117 5.89422C78.9928 5.86937 78.9841 5.83868 78.9913 5.80799L79.341 4.15792C79.3512 4.10969 79.3935 4.07461 79.443 4.07461H80.4047C80.4979 4.07461 80.5795 4.00884 80.5999 3.91823L80.9656 2.28131C80.9744 2.24478 81.002 2.21408 81.0385 2.20385L84.1682 1.2977C84.2031 1.28893 84.241 1.2977 84.2672 1.32255C84.2949 1.3474 84.3051 1.38393 84.2978 1.42047L83.7704 3.832C83.7573 3.89192 83.7704 3.9533 83.8097 4.00007C83.8476 4.04684 83.9044 4.07461 83.9656 4.07461H85.0773C85.1094 4.07461 85.1385 4.08923 85.1575 4.11407C85.1779 4.13892 85.1852 4.17107 85.1779 4.20177L84.8282 5.85037Z" fill="white"/>
<path d="M101.728 13.78C100.515 13.78 99.389 13.4745 98.3531 12.8665C97.3171 12.2571 96.4998 11.4298 95.8995 10.3848C95.2992 9.33692 94.999 8.19985 94.999 6.96924C94.999 5.73863 95.2992 4.59718 95.8995 3.55364C96.4998 2.50573 97.3171 1.6785 98.3531 1.07196C99.389 0.462507 100.514 0.158508 101.728 0.158508C102.941 0.158508 104.066 0.462507 105.102 1.07196C106.138 1.6785 106.955 2.50573 107.557 3.55364C108.157 4.59864 108.456 5.73863 108.456 6.96924C108.456 8.19985 108.157 9.33692 107.557 10.3848C106.955 11.4298 106.138 12.2571 105.102 12.8665C104.066 13.4745 102.941 13.78 101.728 13.78ZM101.728 1.1012C100.679 1.1012 99.7111 1.36427 98.8237 1.89188C97.9378 2.41803 97.2312 3.1298 96.7067 4.02572C96.1807 4.92017 95.9199 5.90086 95.9199 6.96924C95.9199 8.03762 96.1807 9.01684 96.7067 9.91276C97.2312 10.8087 97.9364 11.519 98.8237 12.0466C99.7096 12.5727 100.677 12.8358 101.728 12.8358C102.778 12.8358 103.746 12.5727 104.631 12.0466C105.517 11.519 106.221 10.8087 106.74 9.91276C107.257 9.01684 107.516 8.0347 107.516 6.96924C107.516 5.90378 107.257 4.92017 106.74 4.02572C106.221 3.1298 105.519 2.41803 104.631 1.89188C103.747 1.36427 102.778 1.1012 101.728 1.1012Z" fill="white"/>
<path d="M112.259 2.80389V13.6353H111.338V0.138062L120.541 11.1741V0.301753H121.462V13.8618L112.259 2.80535V2.80389Z" fill="white"/>
<path d="M125.168 13.6353V0.301758H133.778V1.24445H126.089V6.49719H132.08V7.44133H126.089V12.6707H133.778V13.6353H125.168Z" fill="white"/>
<path d="M92.7028 5.85263L92.171 8.327C92.1418 8.46584 92.018 8.56523 91.8766 8.56523H88.5809C88.3885 8.56523 88.2457 8.38838 88.2865 8.19984L88.8183 5.72547C88.8475 5.58663 88.9713 5.48724 89.1127 5.48724H92.4085C92.6008 5.48724 92.7436 5.66409 92.7028 5.85263Z" fill="#CAB167"/>
</g>
<defs>
<clipPath id="clip0_3014_9529">
<rect width="133.778" height="13.9999" fill="white"/>
</clipPath>
</defs>
</svg>
