<svg width="115" height="20" viewBox="0 0 115 20" fill="none" xmlns="http://www.w3.org/2000/svg">
<g clip-path="url(#clip0_3059_9860)">
<path d="M57.5453 1.95363L56.993 4.63748C56.9599 4.78918 56.8277 4.89615 56.6721 4.89615H53.1111C52.903 4.89615 52.7474 4.70361 52.7902 4.4994L53.3562 1.81555C53.3892 1.66385 53.5215 1.55688 53.6771 1.55688H57.2244C57.4325 1.55688 57.5881 1.74942 57.5453 1.95363Z" fill="#DD3735"/>
<path d="M29.4925 6.10229C25.8985 6.10229 23.7611 7.59397 23.1349 10.5365C22.812 12.0535 23.026 13.2359 23.7669 14.0469C24.5118 14.8598 25.774 15.2721 27.5185 15.2721C29.263 15.2721 30.7119 14.8579 31.8146 14.0411C32.9154 13.2242 33.6369 12.0379 33.9617 10.5151C34.2457 9.179 34.092 8.13463 33.5066 7.41311C32.8045 6.54571 31.4529 6.10618 29.4906 6.10618L29.4925 6.10229ZM29.6928 10.5365C29.5333 11.1861 29.3758 11.6606 29.2261 11.9484C29.053 12.2791 28.8332 12.5202 28.5707 12.668C28.4034 12.7769 28.2361 12.8314 28.0611 12.8314C28.0475 12.8314 28.0358 12.8294 28.0281 12.8275C28.0105 12.8275 27.9989 12.8314 27.9853 12.8314C27.5107 12.8314 27.2423 12.5961 27.1879 12.1332C27.147 11.8084 27.2171 11.2755 27.4057 10.5093C27.5594 9.88109 27.7344 9.41627 27.925 9.12649C28.0767 8.89701 28.277 8.7317 28.522 8.6364C28.666 8.57028 28.806 8.53916 28.9499 8.53916C28.9616 8.53916 28.9713 8.53916 28.9771 8.54305C28.9946 8.54305 29.0044 8.53916 29.0141 8.53916C29.2922 8.53916 29.5022 8.62862 29.6403 8.8056C29.8854 9.11677 29.9029 9.68466 29.6928 10.5365Z" fill="white"/>
<path d="M56.3164 6.27832L52.629 6.32694C52.5142 6.32694 52.4151 6.41251 52.3917 6.52531L50.6803 14.8025C50.6667 14.8744 50.6842 14.9503 50.7328 15.0067C50.7795 15.0631 50.8495 15.0961 50.9234 15.0942L54.6302 15.0456C54.745 15.0456 54.8441 14.96 54.8675 14.8472L56.5575 6.57199C56.5711 6.50003 56.5536 6.42418 56.505 6.36778C56.4583 6.31138 56.3883 6.27832 56.3125 6.28027L56.3164 6.27832Z" fill="white"/>
<path d="M62.3386 15.0582H65.8645C65.9773 15.0582 66.0746 14.9785 66.0979 14.8676L67.3581 8.94368C67.5546 8.01406 67.4632 7.30614 67.0839 6.83744C66.6891 6.34929 65.9695 6.10229 64.9427 6.10229C63.9158 6.10229 63.0581 6.40763 62.4047 7.01053C62.1849 7.21473 61.9904 7.47728 61.829 7.79235C61.829 7.79235 61.7687 7.90515 61.7454 7.93237C61.7065 7.97516 61.6676 7.96933 61.6481 7.96349C61.619 7.95182 61.5956 7.92459 61.5898 7.88959C61.582 7.83708 61.5995 7.74373 61.6034 7.72622L61.8621 6.60406C61.8776 6.53405 61.8601 6.46014 61.8135 6.40374C61.7687 6.34734 61.7007 6.31428 61.6267 6.31428H58.2116C58.0988 6.31428 57.9997 6.39402 57.9763 6.50487L56.2201 14.7684C56.2046 14.8404 56.2221 14.9123 56.2688 14.9687C56.3154 15.0251 56.3816 15.0582 56.4555 15.0582H59.9736C60.0864 15.0582 60.1837 14.9785 60.209 14.8676L61.2436 10.0036C61.3253 9.62048 61.4167 9.35209 61.5217 9.18678C61.6968 8.88728 62.113 8.75309 62.4475 8.75309C62.782 8.75309 63.1379 8.89312 63.2001 9.20623C63.2234 9.37738 63.1943 9.6516 63.1145 10.0269L62.1071 14.7684C62.0916 14.8404 62.1091 14.9123 62.1557 14.9687C62.2005 15.0251 62.2685 15.0582 62.3405 15.0582H62.3386Z" fill="white"/>
<path d="M1.07089 12.5122C1.03005 12.5122 0.98921 12.5219 0.950313 12.5394C0.866686 12.5783 0.804451 12.6561 0.783058 12.7456L0.417432 14.4804C0.399928 14.5581 0.413542 14.6398 0.456328 14.7098C0.499114 14.7799 0.567183 14.8265 0.644976 14.844C1.89355 15.128 3.05656 15.27 4.18455 15.27C5.56343 15.27 6.79451 15.0482 7.84277 14.6107C9.19247 14.0642 10.0093 13.2182 10.2738 12.096C10.4974 11.1392 10.2077 10.4701 9.38307 10.0481C8.9377 9.81278 8.1131 9.61441 6.93648 9.45882C6.16244 9.36353 5.74625 9.23517 5.62372 9.06013C5.58872 9.00957 5.57705 8.95317 5.59066 8.89482C5.69374 8.45335 6.28885 8.23747 7.40907 8.23747C8.20645 8.23747 9.04467 8.36389 9.90233 8.61283C9.98402 8.63616 10.0715 8.62449 10.1435 8.58365C10.2135 8.54281 10.2602 8.47669 10.2777 8.39695L10.6647 6.63494C10.6822 6.55326 10.6647 6.46769 10.6161 6.39962C10.5675 6.3296 10.4916 6.28487 10.408 6.2732C9.45308 6.15651 8.55263 6.104 7.48297 6.104C3.887 6.104 1.83132 7.09781 1.37039 9.05625C1.14091 10.0364 1.42679 10.7288 2.24557 11.1722C2.66759 11.3959 3.48636 11.6156 4.67854 11.8296C5.40396 11.9482 5.82209 12.1018 5.95434 12.2983C5.99907 12.3644 6.01269 12.4363 5.99518 12.5103C5.896 12.9284 5.27365 13.1326 4.0912 13.1326C2.90875 13.1326 1.97718 12.9342 1.19147 12.5414C1.15452 12.5219 1.11368 12.5122 1.07089 12.5122Z" fill="white"/>
<path d="M67.3959 16.1784L66.9135 18.3819C66.8824 18.5064 66.9524 18.6308 67.0711 18.6659C68.3566 19.0373 69.7588 19.226 71.2388 19.226C74.8017 19.226 77.1433 17.4484 77.8298 14.22L79.4499 6.59822C79.4654 6.52821 79.4479 6.4582 79.4032 6.4018C79.3585 6.34734 79.2923 6.31428 79.2204 6.31428H75.815C75.7061 6.31428 75.6088 6.39207 75.5855 6.49904L75.2607 7.92265C75.2491 7.97321 75.214 8.0335 75.1538 8.0335C75.1324 8.0335 75.0604 8.02378 75.0604 7.90709C75.0643 7.30809 74.8893 6.9444 74.4381 6.61378C73.9771 6.27538 73.3704 6.10229 72.6313 6.10229C71.3691 6.10229 70.3073 6.56516 69.471 7.47923C68.7222 8.28439 68.1971 9.37543 67.9112 10.7193C67.6448 11.9698 67.7265 12.9928 68.1524 13.761C68.6094 14.6226 69.4632 15.0582 70.6943 15.0582C71.7834 15.0582 72.7519 14.6712 73.5726 13.9088C73.6562 13.831 73.771 13.8057 73.8429 13.8485C73.8896 13.8758 73.9071 13.9283 73.8916 13.9866C73.4404 15.5833 72.3182 16.3943 70.5523 16.3943C69.4282 16.3943 68.6308 16.2193 67.709 16.0151L67.674 16.0073C67.6565 16.0034 67.6409 16.0014 67.6234 16.0014C67.5184 16.0014 67.4211 16.0734 67.3939 16.1784H67.3959ZM72.9775 12.6194C72.6858 12.6194 72.4466 12.5124 72.2851 12.3082C72.0187 11.9718 71.9662 11.3767 72.1393 10.6318C72.4368 9.35987 73.03 8.68696 73.8546 8.68696C74.1502 8.68696 74.3739 8.77837 74.5217 8.95924C74.7492 9.23929 74.7901 9.71383 74.6462 10.414L74.6345 10.4859C74.6267 10.5287 74.6209 10.5715 74.6111 10.6182C74.5217 11.0363 74.3953 11.3883 74.2358 11.6606C73.9188 12.2966 73.4948 12.6194 72.9794 12.6194H72.9775Z" fill="white"/>
<path d="M50.3682 9.02266C50.4343 9.02266 50.4907 8.97793 50.5063 8.91375L51.0703 6.48855C51.08 6.44577 51.0703 6.40298 51.0431 6.36797C51.0158 6.33491 50.975 6.31352 50.9322 6.31352H49.6194C49.5416 6.31352 49.4677 6.27851 49.4191 6.21822C49.3705 6.15599 49.353 6.0782 49.3705 6.00235L50.0298 3.19208C50.0415 3.14151 50.0259 3.09095 49.989 3.05789C49.952 3.02288 49.8995 3.01121 49.8509 3.02482L45.7531 4.20728C45.7045 4.22089 45.6676 4.25979 45.6559 4.30841L45.2047 6.12098C45.1755 6.23378 45.0744 6.31352 44.9577 6.31352H43.8122C43.7402 6.31352 43.7305 6.37186 43.7286 6.39715L43.6994 6.52939L43.2015 8.85346C43.1918 8.89624 43.2015 8.93903 43.2307 8.97209C43.2599 9.00515 43.2988 9.0246 43.3416 9.0246H44.3198C44.3976 9.0246 44.4715 9.05961 44.5201 9.1199C44.5687 9.18213 44.5862 9.25993 44.5687 9.33577L43.9756 11.8854C43.7266 13.0582 43.8278 13.9372 44.2809 14.4954C44.6971 15.0088 45.4264 15.2714 46.4474 15.2714C47.2643 15.2714 48.19 15.1391 49.2013 14.8785C49.2538 14.8649 49.2966 14.8202 49.3083 14.7677L49.7653 12.64C49.7809 12.5856 49.7906 12.4981 49.7634 12.4689C49.742 12.4475 49.6875 12.4592 49.6583 12.4689C49.6486 12.4728 49.6369 12.4747 49.6272 12.4767C49.4036 12.5272 49.1877 12.5525 48.9757 12.5525C48.6859 12.5525 48.4739 12.4708 48.3417 12.3075C48.1764 12.1033 48.1414 11.7707 48.2367 11.3195L48.7365 9.22103C48.7637 9.10629 48.8668 9.02655 48.9835 9.02655H50.3663L50.3682 9.02266Z" fill="white"/>
<path d="M42.4779 6.33557H42.5246C42.5129 6.31807 42.4468 6.3064 42.4273 6.3064H42.4098C41.2235 6.33168 40.4261 6.72453 39.864 7.50441L39.8485 7.52386C39.8096 7.57442 39.7454 7.65999 39.619 7.93421C39.6112 7.95172 39.5879 8.00034 39.5217 7.98867L39.4984 7.98478L39.479 7.96144C39.4673 7.94588 39.4381 7.9031 39.4945 7.5822L39.6657 6.6234C39.6793 6.54561 39.6579 6.46782 39.6073 6.40753C39.5568 6.34724 39.4829 6.31223 39.4051 6.31223H36.0755C35.9511 6.31223 35.8441 6.39975 35.8188 6.52033L34.0724 14.7372C34.0548 14.815 34.0743 14.8947 34.1249 14.957C34.1754 15.0192 34.2493 15.0542 34.3291 15.0542H37.9037C38.0301 15.0542 38.139 14.9628 38.1623 14.8383L38.4715 13.1502C38.701 12.0747 39.0044 11.2871 39.3778 10.8067C39.7065 10.2855 40.2141 9.87515 40.7995 9.65344C40.9648 9.5737 41.4413 9.45118 41.6688 9.46284H41.6844C41.7466 9.46284 41.7914 9.44729 41.8147 9.41811C41.8303 9.39672 41.8497 9.33449 41.8555 9.29948L42.4759 6.38419C42.4798 6.36863 42.4818 6.34335 42.472 6.32973L42.4779 6.33557Z" fill="white"/>
<path d="M98.8064 8.05077C98.7967 8.05077 98.7869 8.05077 98.7772 8.05077C98.1918 8.05077 97.6123 8.35028 97.2602 8.83648C97.0658 9.10681 96.9335 9.4102 96.8654 9.73693C96.8596 9.76805 96.8654 9.79917 96.8868 9.82445C96.9082 9.85168 96.9393 9.86529 96.9724 9.86529H99.5746C99.6232 9.86529 99.6679 9.83029 99.6796 9.78167C99.841 9.13209 99.8138 8.6595 99.5979 8.37556C99.4365 8.16552 99.1701 8.05661 98.8064 8.04883V8.05077Z" fill="white"/>
<path d="M86.5519 8.73925C85.7739 8.73925 85.2313 9.39854 84.9377 10.6996C84.7704 11.4426 84.8074 11.9715 85.0485 12.273C85.1983 12.4597 85.4239 12.555 85.7214 12.555C86.4858 12.555 86.9817 11.9365 87.2792 10.6102C87.4543 9.83613 87.4251 9.29547 87.1917 9.0018C87.0517 8.82677 86.8358 8.7373 86.5519 8.7373V8.73925Z" fill="white"/>
<path d="M113.212 5.11595L111.8 5.10818C111.676 5.10818 111.582 4.99149 111.608 4.86896L112.38 1.23603C112.411 1.09017 112.275 0.963758 112.131 1.0046L105.557 2.86968C105.487 2.88913 105.433 2.94748 105.417 3.01944L104.978 4.95842C104.958 5.04983 104.877 5.11595 104.783 5.11595L103.856 5.13151C103.76 5.13151 103.679 5.19958 103.661 5.29293L103.375 6.58819C103.375 6.58819 103.208 6.28868 102.94 6.00668C102.096 5.23848 100.888 4.84757 99.3339 4.84757C95.7632 4.84757 93.8086 6.18172 92.7487 7.80759C92.6631 7.45947 92.5464 7.13274 92.387 6.83129C91.9046 5.925 90.8817 4.84757 88.7307 4.84757C87.91 4.84757 87.0095 5.61577 87.0095 5.61577L86.9998 5.608C86.9998 5.608 87.6221 4.54807 87.7077 4.09492L88.2795 1.40329C88.3067 1.27882 88.2114 1.16407 88.085 1.16407H81.7857C81.6924 1.16407 81.6107 1.2302 81.5912 1.32161L78.4581 16.0731C78.4328 16.1956 78.5262 16.3123 78.6526 16.3123H83.8297C84.1078 16.3123 84.1351 16.0439 84.1623 15.9292C84.2226 15.6627 84.3237 15.2193 84.3237 15.1649C84.3237 15.0851 84.3801 15.0346 84.3937 15.126C84.4248 15.3282 84.5085 15.5383 84.6466 15.7308C84.7341 15.8514 84.9694 16.1198 85.5353 16.322C85.8874 16.4465 86.2744 16.5243 86.6614 16.5243C88.3339 16.5243 89.7381 15.9117 90.8369 14.702C91.1131 14.4005 91.3581 14.0583 91.5818 13.6907C91.6654 13.5526 91.8716 13.5584 91.9338 13.7082C92.1147 14.1438 92.3656 14.5406 92.6884 14.8945C93.6803 15.9778 95.4462 16.6235 97.5563 16.6235C100.283 16.6235 101.961 15.8144 102.329 15.6161C102.379 15.5888 102.413 15.5422 102.426 15.4877L102.866 13.8813C102.866 13.8813 102.905 13.6032 103.192 13.6032C103.332 13.6032 103.358 13.6946 103.395 13.7685C103.416 13.8132 103.544 14.2508 103.56 14.2936C103.694 14.6748 104.101 15.4877 104.919 15.9583C105.616 16.359 106.557 16.5321 106.786 16.5554C109.443 16.8141 110.851 16.0303 111.188 15.8203C111.236 15.7911 111.269 15.7444 111.279 15.688L112.09 11.6758C112.117 11.5416 112.002 11.4211 111.866 11.4405L110.649 11.5397C110.34 11.5825 110.198 11.4444 110.233 11.1702L110.47 9.99357C110.489 9.90022 110.571 9.8341 110.664 9.8341H112.335C112.43 9.8341 112.512 9.76797 112.529 9.67462L113.405 5.35322C113.428 5.2307 113.335 5.1179 113.21 5.11595H113.212ZM91.539 10.542C91.2395 11.9501 90.7086 13.0683 89.9481 13.8968C89.0827 14.8517 87.9858 15.3263 86.6595 15.3263C85.3331 15.3263 84.559 14.7642 84.2479 13.6401C84.242 13.6168 84.2109 13.5059 84.1409 13.5059C84.0281 13.5059 84.0048 13.6459 84.0048 13.6459L83.7267 14.9568C83.7072 15.0482 83.6255 15.1143 83.5322 15.1143H80.1287C80.0023 15.1143 79.909 14.9976 79.9343 14.8751L82.5598 2.51962C82.5792 2.42821 82.6609 2.36209 82.7542 2.36209H86.6031C86.7295 2.36209 86.8228 2.47877 86.7975 2.6013L85.9126 6.76516C85.8737 6.94992 86.0877 7.07634 86.2316 6.95381C86.9492 6.34897 87.7816 6.04558 88.7287 6.04558C89.9832 6.04558 90.8505 6.49289 91.327 7.3914C91.7452 8.18683 91.8171 9.23703 91.539 10.542ZM102.852 11.1857L102.835 11.2674C102.835 11.2674 102.722 11.7128 102.255 11.7128H97.0195C96.9164 11.7128 96.8211 11.7925 96.8192 11.8976C96.7978 12.691 97.4824 13.1267 99.0655 13.1306C100.106 13.1325 100.849 13.0606 101.662 12.87C101.806 12.8369 101.936 12.9653 101.903 13.1092L101.465 14.7137C101.45 14.7778 101.403 14.8323 101.341 14.8556C100.271 15.2563 99.0888 15.5285 97.5427 15.4624C95.7748 15.3885 94.3279 14.914 93.5694 14.0855C92.8109 13.257 92.595 12.0706 92.9237 10.5265C93.5577 7.54115 95.6951 6.04752 99.3319 6.04752C102.407 6.04752 103.579 7.76091 102.852 11.1877V11.1857ZM111.648 8.65164C111.629 8.74305 111.547 8.80917 111.454 8.80917H109.754C109.661 8.80917 109.579 8.8753 109.56 8.9667L109.035 11.4891C108.869 12.2651 109.097 12.6541 109.717 12.6541C109.98 12.6541 110.293 12.621 110.571 12.5568C110.571 12.5568 110.573 12.5568 110.575 12.5568L110.68 12.5335L110.851 12.481C110.851 12.481 110.974 12.444 110.921 12.5452C110.88 12.6269 110.816 12.7494 110.771 12.975L110.414 14.6923C110.414 14.6923 110.384 14.877 110.264 14.9606C110.153 15.0365 110.04 15.0987 109.923 15.1532C109.157 15.5208 106.946 15.7619 105.489 14.9373C104.608 14.4394 104.357 13.4417 104.731 11.7264L105.287 9.0445C105.312 8.92197 105.219 8.80528 105.092 8.80528H104.003C103.877 8.80528 103.784 8.68859 103.809 8.56607L104.266 6.29841C104.285 6.207 104.367 6.14088 104.46 6.14088H105.719C105.812 6.14088 105.892 6.0767 105.913 5.98529L106.392 3.96073C106.407 3.89072 106.462 3.83432 106.53 3.81292L110.629 2.62853C110.773 2.58768 110.911 2.7141 110.878 2.8619L110.186 5.89777C110.159 6.02224 110.252 6.13893 110.38 6.13893H111.911C112.037 6.13893 112.131 6.25562 112.106 6.37814L111.648 8.64581V8.65164Z" fill="white"/>
<path d="M21.9586 7.50062C21.5093 6.57294 20.6244 6.10229 19.3272 6.10229C18.314 6.10229 17.4816 6.44264 16.7853 7.14472L16.7717 7.15833C16.6764 7.25363 16.515 7.452 16.2972 7.84875C16.2855 7.86819 16.2777 7.87986 16.2777 7.88181C16.2777 7.8857 16.2738 7.89153 16.268 7.89931L16.2524 7.9207C16.2213 7.96155 16.2019 7.98294 16.1358 7.98683H16.1338C16.1007 7.98683 16.0813 7.97905 16.0657 7.96349C16.0424 7.94015 16.0327 7.90126 16.0346 7.84486C16.0366 7.76317 16.0618 7.65815 16.0638 7.65232L16.2135 6.98719L16.2797 6.65268C16.2952 6.56905 16.2738 6.48543 16.2213 6.4193C16.1669 6.35318 16.0891 6.31623 16.0035 6.31623H12.7343C12.602 6.31623 12.4853 6.40958 12.4581 6.53988L9.99983 18.2983C9.98233 18.3819 10.0037 18.4675 10.0562 18.5336C10.1107 18.5997 10.1904 18.6386 10.276 18.6386H13.7942C13.9284 18.6386 14.0451 18.5433 14.0703 18.4111L14.5429 15.9509C14.5429 15.9509 14.5468 15.9509 14.5488 15.9509L14.7919 14.6829C14.7958 14.6634 14.7997 14.6362 14.8035 14.6031C14.8308 14.4611 14.8677 14.2589 14.9125 14.0702C14.928 13.9924 14.9786 13.9574 15.033 14.0586C15.0875 14.1597 15.1925 14.3406 15.352 14.5078C15.6359 14.8054 16.0113 15.0057 16.4411 15.1263C16.4508 15.1302 16.4625 15.1321 16.4722 15.1341C16.5403 15.1516 16.6045 15.173 16.6745 15.1885C16.6745 15.1866 16.6784 15.1827 16.6803 15.1807C16.9215 15.2352 17.1762 15.2702 17.4524 15.2702C18.6854 15.2702 19.7376 14.8229 20.5816 13.9419C21.3284 13.1581 21.8458 12.1079 22.118 10.8185C22.4136 9.42989 22.3592 8.3155 21.9586 7.50062ZM18.1117 10.5773C17.783 11.9543 17.2151 12.6525 16.4236 12.6525C16.1241 12.6525 15.8926 12.5494 15.7332 12.3491C15.4687 12.0146 15.4278 11.4292 15.6126 10.6532C15.7293 10.165 15.8868 9.76245 16.0774 9.45712C16.3127 9.03314 16.6278 8.79004 17.0109 8.73364C17.1159 8.70836 17.221 8.69669 17.326 8.69669C17.641 8.69669 17.8783 8.79393 18.0281 8.98647C18.2673 9.28986 18.2945 9.81107 18.1097 10.5793L18.1117 10.5773Z" fill="white"/>
</g>
<defs>
<clipPath id="clip0_3059_9860">
<rect width="113" height="18.2269" fill="white" transform="translate(0.410004 0.999023)"/>
</clipPath>
</defs>
</svg>
