<svg width="173" height="18" viewBox="0 0 173 18" fill="none" xmlns="http://www.w3.org/2000/svg">
<g clip-path="url(#clip0_3059_9876)">
<path d="M56.6728 1.10326L56.1035 3.7453C56.0715 3.89375 55.94 3.99898 55.7878 3.99898H52.2569C52.0521 3.99898 51.898 3.80919 51.9412 3.60813L52.5106 0.966084C52.5425 0.817633 52.6741 0.712402 52.8263 0.712402H56.3571C56.562 0.712402 56.7161 0.902194 56.6728 1.10326Z" fill="#CAB167"/>
<path d="M51.5973 5.41385L49.8704 13.541C49.831 13.7252 49.9719 13.9 50.1598 13.9H53.7433C53.8842 13.9 54.0045 13.8022 54.0327 13.6651L55.7596 5.53787C55.7991 5.35371 55.6581 5.17896 55.4702 5.17896H51.8867C51.7458 5.17896 51.6255 5.27667 51.5973 5.41385Z" fill="white"/>
<path d="M63.9545 4.96851C62.9191 4.96851 62.0735 5.27104 61.4177 5.878C61.2298 6.05276 61.0231 6.30456 60.8389 6.66347C60.8351 6.67287 60.7807 6.77246 60.7656 6.78937C60.7506 6.80629 60.7393 6.80816 60.7318 6.80441C60.7205 6.80065 60.713 6.78749 60.7111 6.77434C60.7055 6.73112 60.7243 6.63341 60.7243 6.63341L60.978 5.53036C61.0174 5.34809 60.8784 5.17897 60.6923 5.17897H57.3287C57.1915 5.17897 57.0713 5.2748 57.0431 5.4101L55.3143 13.5467C55.2748 13.729 55.4139 13.8981 55.5999 13.8981H59.065C59.2022 13.8981 59.3225 13.8023 59.3506 13.667L60.3691 8.87708C60.448 8.50877 60.5364 8.24757 60.636 8.0916C60.7919 7.82477 61.1677 7.68947 61.5003 7.68947C61.833 7.68947 62.1336 7.82289 62.1862 8.0916C62.2088 8.24757 62.1806 8.51065 62.1017 8.87708L61.1095 13.5467C61.07 13.729 61.2091 13.8981 61.3951 13.8981H64.8659C65.003 13.8981 65.1233 13.8023 65.1515 13.667L66.3917 7.83416C66.7976 5.92498 65.9858 4.97039 63.9582 4.97039L63.9545 4.96851Z" fill="white"/>
<path d="M9.27586 8.86016C8.8305 8.62527 8.0206 8.42985 6.84803 8.27388C5.94605 8.16113 5.51949 7.99953 5.56835 7.78719C5.66231 7.38505 6.24108 7.18399 7.30466 7.18399C8.09389 7.18399 8.90755 7.30801 9.74564 7.55042C9.94106 7.60679 10.144 7.49404 10.1872 7.29486L10.5687 5.55855C10.6119 5.35748 10.471 5.16018 10.268 5.13575C9.18942 5.00233 8.26677 4.96851 7.3817 4.96851C3.79446 4.96851 1.77065 5.95129 1.31026 7.91872C1.07913 8.9015 1.37603 9.61745 2.20097 10.0647C2.62565 10.2883 3.42991 10.5063 4.61376 10.7186C5.50822 10.8633 5.92538 11.0644 5.86525 11.3218C5.77693 11.7014 5.16998 11.8912 4.04438 11.8912C2.91879 11.8912 1.98299 11.6995 1.21443 11.3143C1.019 11.2166 0.78411 11.3406 0.733374 11.5529L0.329363 13.2611C0.284264 13.4509 0.406407 13.6425 0.594319 13.6857C1.83266 13.9676 3.01275 14.1067 4.1327 14.1067C5.50258 14.1067 6.71086 13.8887 7.75565 13.4527C9.10861 12.9059 9.91664 12.0659 10.1816 10.9385C10.4071 9.97824 10.1045 9.28485 9.27586 8.86016Z" fill="white"/>
<path d="M29.0498 4.96851C25.4644 4.96851 23.3617 6.43798 22.736 9.3788C22.4127 10.899 22.6251 12.0678 23.373 12.8834C24.1209 13.6989 25.3648 14.1067 27.1068 14.1067C28.8487 14.1067 30.2694 13.6989 31.3705 12.8834C32.4698 12.0678 33.182 10.899 33.5052 9.3788C34.1291 6.43986 32.6446 4.96851 29.0498 4.96851ZM27.6442 11.5022H27.6423L27.6048 11.4966C27.5878 11.4966 27.5747 11.5003 27.5672 11.5022C27.1763 11.5022 26.9734 11.3256 26.9283 10.946C26.8907 10.6453 26.9621 10.1267 27.1406 9.40135C27.2891 8.79815 27.4544 8.35656 27.6311 8.08785C27.7645 7.8849 27.9355 7.74585 28.1535 7.65941C28.2756 7.60303 28.394 7.57485 28.5124 7.57485L28.5424 7.5786C28.5537 7.5786 28.5631 7.5786 28.5763 7.57485C28.8055 7.57485 28.969 7.64249 29.0761 7.77967C29.2847 8.04463 29.2922 8.57642 29.1005 9.35625C28.9464 9.98388 28.7961 10.4405 28.6533 10.713C28.4955 11.0155 28.3038 11.2279 28.0614 11.365C27.9186 11.4571 27.7814 11.5041 27.6405 11.5041L27.6442 11.5022Z" fill="white"/>
<path d="M78.0122 5.17897H74.6598C74.5245 5.17897 74.408 5.27292 74.3799 5.40446L74.0604 6.80441C74.0604 6.80441 74.0454 6.87018 74.0097 6.87018C73.974 6.87018 73.974 6.81756 73.974 6.80065C73.9777 6.19181 73.7917 5.81599 73.3388 5.48151C72.8728 5.13951 72.2696 4.96851 71.5274 4.96851C70.2627 4.96851 69.2123 5.42701 68.3742 6.34214C67.6263 7.14641 67.1095 8.21938 66.8258 9.5592C66.559 10.8107 66.6398 11.8217 67.0682 12.5921C67.5305 13.4621 68.3798 13.8981 69.62 13.8981C70.7118 13.8981 71.6683 13.5166 72.4913 12.7518C72.5928 12.6579 72.7413 12.6673 72.7112 12.7706C72.2734 14.3246 71.1966 15.1007 69.4772 15.1007C68.3648 15.1007 67.5812 14.9241 66.6548 14.7211C66.5045 14.6873 66.3523 14.7813 66.3147 14.9316L65.8393 17.102C65.8017 17.2504 65.8862 17.4026 66.0328 17.4459C67.134 17.7634 68.4963 18.0002 70.1518 18.0002C73.8387 18.0002 76.0448 16.0835 76.6949 13.0262L78.2903 5.52285C78.3279 5.34433 78.1926 5.17709 78.0103 5.17709L78.0122 5.17897ZM73.3614 9.28297L73.3501 9.35249C73.3426 9.39384 73.3369 9.43705 73.3275 9.48215C73.243 9.87865 73.1246 10.2094 72.9724 10.4687C72.6849 11.0437 72.3109 11.3331 71.8656 11.3331C71.6213 11.3331 71.4315 11.2485 71.3 11.0832C71.0651 10.7881 71.0256 10.2451 71.1854 9.55732C71.4616 8.37911 71.9953 7.75712 72.7281 7.75712C72.9762 7.75712 73.1528 7.82665 73.2693 7.96946C73.461 8.20435 73.491 8.64594 73.3595 9.28109L73.3614 9.28297Z" fill="white"/>
<path d="M48.2431 7.95614H49.6055C49.6957 7.95614 49.7746 7.89413 49.7953 7.80581L50.3515 5.41745C50.3797 5.2953 50.2876 5.1788 50.1617 5.1788H48.8689C48.743 5.1788 48.6509 5.06229 48.6791 4.93827L49.3292 2.1722C49.3631 2.02751 49.2278 1.89785 49.085 1.93919L45.0486 3.10425C44.981 3.12304 44.9302 3.17753 44.9133 3.24518L44.4698 5.03035C44.4473 5.11679 44.3702 5.1788 44.28 5.1788H43.254C43.254 5.1788 43.286 5.1788 43.1507 5.1788C43.0154 5.1788 43.0135 5.31409 43.0135 5.31409L43.0041 5.35543L42.9872 5.43248L42.4968 7.71937C42.4704 7.84151 42.5625 7.95614 42.6884 7.95614H43.6524C43.7783 7.95614 43.8704 8.07264 43.8422 8.19479L43.2578 10.7053C42.7749 12.9734 43.6054 14.1065 45.7458 14.1065C46.5651 14.1065 47.4745 13.975 48.4705 13.7175C48.5438 13.6987 48.6001 13.6386 48.6171 13.5672L49.068 11.472C49.068 11.472 49.1639 11.1563 48.8914 11.2371C48.8801 11.2408 48.867 11.2427 48.8538 11.2465C48.6528 11.2916 48.4461 11.3179 48.2356 11.3179C47.6249 11.3179 47.3994 10.9364 47.5629 10.1716L48.0552 8.10835C48.0759 8.02003 48.1548 7.95802 48.245 7.95802L48.2431 7.95614Z" fill="white"/>
<path d="M41.9292 5.224C41.9086 5.19206 41.8748 5.17139 41.8353 5.17139C41.8297 5.17139 41.8109 5.17139 41.8071 5.17139C40.8544 5.19206 39.8848 5.4495 39.2196 6.37402C39.1839 6.42476 39.1181 6.49429 38.9734 6.80622C38.9659 6.82125 38.9621 6.83253 38.9377 6.82877C38.8982 6.82313 38.9565 6.49241 38.9565 6.49241L39.1256 5.54909C39.1594 5.35554 39.011 5.1789 38.8155 5.1789H35.5384C35.3899 5.1789 35.2602 5.28225 35.2302 5.42883L33.5108 13.5184C33.4694 13.7139 33.6179 13.898 33.819 13.898H37.3386C37.4908 13.898 37.6204 13.789 37.6486 13.6406L37.953 11.9794C38.0695 11.4345 38.3364 10.339 38.8362 9.69631C39.1557 9.1927 39.633 8.79809 40.2117 8.57823C40.3715 8.50307 40.8337 8.3828 41.0442 8.39408C41.0498 8.39408 41.0573 8.39408 41.063 8.39408C41.1532 8.39408 41.2077 8.36401 41.2359 8.32831C41.2678 8.28697 41.2866 8.18925 41.2866 8.18925L41.9443 5.31984C41.9443 5.31984 41.9593 5.26158 41.933 5.224H41.9292Z" fill="white"/>
<path d="M97.2111 6.94434C97.2017 6.94434 97.1905 6.94434 97.1811 6.94434C96.6042 6.94434 96.0329 7.23936 95.6872 7.71853C95.4955 7.98349 95.3658 8.28227 95.3001 8.60548C95.2925 8.63554 95.3001 8.66749 95.3226 8.69192C95.3433 8.71823 95.3733 8.73326 95.4072 8.73326H97.9703C98.0173 8.73326 98.0624 8.69756 98.0736 8.65246C98.2334 8.01356 98.2071 7.54753 97.9928 7.26754C97.835 7.06084 97.5719 6.95185 97.213 6.94621L97.2111 6.94434Z" fill="white"/>
<path d="M97.9684 8.82325H95.4053C95.3452 8.82325 95.2869 8.79694 95.2493 8.74808C95.2118 8.69923 95.1967 8.64097 95.2099 8.58272C95.2794 8.24824 95.4147 7.93818 95.612 7.66383C95.9747 7.16211 96.5741 6.85205 97.1792 6.85205H97.2111C97.6001 6.85957 97.8858 6.97983 98.0624 7.21096C98.2935 7.5135 98.3273 8.00583 98.1582 8.67292C98.1375 8.76124 98.0549 8.82325 97.9666 8.82325H97.9684ZM97.1924 7.0362C96.6324 7.0362 96.0893 7.31807 95.7605 7.77094C95.5782 8.02462 95.4523 8.31025 95.3884 8.62218L95.4034 8.63909H97.9666C98.1338 8.01523 98.1131 7.57739 97.9158 7.31995C97.7749 7.13768 97.5381 7.03996 97.2074 7.03433H97.1905L97.1924 7.0362Z" fill="white"/>
<path d="M83.567 9.47414C83.3941 10.2032 83.4261 10.7256 83.661 11.0244C83.8075 11.2104 84.0293 11.3063 84.3205 11.3082C85.0722 11.3157 85.5664 10.7125 85.8727 9.40837C86.0531 8.64733 86.0287 8.11554 85.8013 7.82427C85.6641 7.64951 85.4536 7.5612 85.1737 7.55744C84.4089 7.54992 83.8677 8.19446 83.5651 9.47226L83.567 9.47414Z" fill="white"/>
<path d="M84.3356 11.4003H84.3206C83.9992 11.3965 83.7531 11.2894 83.5896 11.0808C83.3378 10.7576 83.3002 10.2108 83.4787 9.45352C83.7907 8.13437 84.3563 7.46729 85.1624 7.46729H85.1774C85.4875 7.47104 85.7224 7.57252 85.8765 7.76982C86.1208 8.08176 86.1508 8.64173 85.9648 9.43097C85.6491 10.7745 85.1305 11.4022 84.3375 11.4022L84.3356 11.4003ZM83.6572 9.49486C83.4919 10.1958 83.5182 10.6919 83.7343 10.9681C83.8621 11.1297 84.0594 11.2143 84.3224 11.218H84.3337C85.029 11.218 85.4913 10.6355 85.7844 9.38963C85.9573 8.65677 85.9404 8.14941 85.7299 7.88445C85.6115 7.73412 85.4255 7.6552 85.1737 7.65332H85.1624C84.4521 7.65332 83.9447 8.27343 83.6554 9.49861L83.6572 9.49486Z" fill="white"/>
<path d="M106.201 14.4186C105.383 14.4186 104.483 14.2758 103.775 13.8756C102.899 13.3814 102.644 12.2652 103.014 10.5608L103.563 7.92064C103.574 7.87178 103.563 7.82104 103.529 7.78158C103.497 7.74212 103.45 7.71957 103.401 7.71957H102.328C102.26 7.71957 102.196 7.6895 102.153 7.63689C102.11 7.58427 102.093 7.51662 102.108 7.44898L102.559 5.32745C102.582 5.2241 102.674 5.14893 102.779 5.14893H104.019C104.096 5.14893 104.164 5.09444 104.181 5.01927L104.652 2.91466C104.671 2.83386 104.731 2.76997 104.81 2.74742L108.847 1.58236C108.927 1.55981 109.008 1.58236 109.065 1.63498C109.123 1.68947 109.147 1.76839 109.13 1.84732L108.45 4.94787C108.439 4.9986 108.45 5.04746 108.482 5.08692C108.514 5.12638 108.561 5.14893 108.612 5.14893H110.046C110.115 5.14893 110.179 5.18088 110.222 5.23537C110.264 5.28611 110.28 5.35376 110.265 5.42328L109.816 7.54293C109.796 7.64628 109.702 7.72145 109.596 7.72145H107.995C107.916 7.72145 107.849 7.77782 107.834 7.85299L107.315 10.3372C107.227 10.7562 107.255 11.0588 107.402 11.2392C107.514 11.3782 107.702 11.4477 107.96 11.4477C108.23 11.4477 108.531 11.4139 108.787 11.3538L108.905 11.3294L109.251 11.2222L109.157 11.4139C109.125 11.4778 109.065 11.5981 109.025 11.8029L108.67 13.6313C108.655 13.6971 108.614 13.8286 108.512 13.8981C108.413 13.9658 108.305 14.0278 108.174 14.0898C107.8 14.2683 107.046 14.4186 106.206 14.4186H106.201ZM102.779 5.33121C102.76 5.33121 102.741 5.34624 102.738 5.36503L102.287 7.48468C102.283 7.49783 102.287 7.51099 102.294 7.5185C102.302 7.52978 102.315 7.53541 102.328 7.53541H103.401C103.506 7.53541 103.604 7.58239 103.672 7.6632C103.739 7.74588 103.766 7.85111 103.743 7.95446L103.194 10.5946C102.841 12.2125 103.068 13.2611 103.865 13.7121C105.246 14.4919 107.379 14.2608 108.089 13.9207C108.212 13.8624 108.311 13.806 108.403 13.7421C108.446 13.7121 108.476 13.6369 108.486 13.5787V13.5749L108.839 11.7634C108.858 11.662 108.882 11.5812 108.907 11.5098L108.802 11.5304C108.554 11.5906 108.238 11.6263 107.954 11.6263C107.638 11.6263 107.402 11.5323 107.253 11.35C107.071 11.1245 107.03 10.7694 107.131 10.294L107.65 7.81165C107.682 7.65004 107.824 7.53354 107.99 7.53354H109.591C109.61 7.53354 109.628 7.5185 109.632 7.49971L110.083 5.37818C110.087 5.36503 110.083 5.35376 110.076 5.34436C110.066 5.33309 110.055 5.32745 110.042 5.32745H108.608C108.501 5.32745 108.401 5.28047 108.336 5.19591C108.27 5.11323 108.243 5.00612 108.268 4.90277L108.948 1.8041C108.952 1.78906 108.948 1.77403 108.937 1.76464C108.922 1.7496 108.903 1.75148 108.896 1.75524L104.861 2.92029C104.846 2.92405 104.835 2.93721 104.831 2.95224L104.359 5.05685C104.324 5.2147 104.181 5.32933 104.019 5.32933H102.779V5.33121ZM96.3994 14.2777C96.2565 14.2777 96.1119 14.2739 95.9653 14.2683C94.1651 14.1913 92.767 13.7064 92.0323 12.9022C91.2825 12.0829 91.0645 10.8953 91.3896 9.37132C92.0135 6.43049 94.1463 4.93847 97.7279 4.93847C99.1448 4.93847 100.169 5.31429 100.77 6.05467C101.452 6.89651 101.605 8.23633 101.223 10.0346L101.206 10.1136C101.142 10.3315 100.949 10.5777 100.605 10.5777H95.4504C95.3621 10.5777 95.285 10.6472 95.2832 10.7299C95.2756 11.0062 95.3583 11.2354 95.5293 11.412C95.8544 11.7484 96.4877 11.9119 97.4648 11.9138C98.4777 11.9175 99.2086 11.8461 100.015 11.6582C100.092 11.6432 100.173 11.6638 100.227 11.7183C100.282 11.7747 100.304 11.8518 100.287 11.9269L99.8551 13.511C99.84 13.5805 99.7874 13.6407 99.716 13.6689C98.6036 14.086 97.5625 14.2777 96.3975 14.2777H96.3994ZM97.7298 5.12262C94.2478 5.12262 92.1751 6.56579 91.57 9.41078C91.26 10.8727 91.461 12.0077 92.1695 12.78C92.8723 13.5486 94.2233 14.0127 95.9747 14.086C97.2882 14.1386 98.4288 13.9564 99.654 13.4979C99.6672 13.4922 99.6765 13.481 99.6803 13.4678L100.113 11.8818C100.114 11.8724 100.113 11.8593 100.101 11.8499C100.09 11.8405 100.077 11.8348 100.058 11.8386C99.2387 12.0303 98.4908 12.113 97.4667 12.0979C96.4388 12.0979 95.7623 11.9138 95.3997 11.5398C95.193 11.3256 95.0934 11.0531 95.1028 10.7262C95.1065 10.5458 95.2644 10.3973 95.4523 10.3973H100.607C100.921 10.3973 101.014 10.1267 101.03 10.0722L101.045 9.99894C101.415 8.257 101.274 6.9698 100.627 6.17305C100.064 5.4759 99.0884 5.12262 97.7279 5.12262H97.7298ZM85.2505 14.1368C83.9464 14.1368 83.161 13.5862 82.849 12.455C82.8246 12.3648 82.7851 12.3441 82.7739 12.3441C82.6893 12.3441 82.6686 12.455 82.6686 12.455L82.3943 13.7497C82.3717 13.853 82.2797 13.9282 82.1744 13.9282H78.8239C78.7563 13.9282 78.6924 13.8981 78.6492 13.8455C78.606 13.7929 78.5909 13.7234 78.6041 13.6576L81.1898 1.49028C81.2104 1.38693 81.3044 1.31177 81.4096 1.31177H85.1998C85.2675 1.31177 85.3313 1.34183 85.3746 1.39445C85.4178 1.44706 85.4347 1.51471 85.4197 1.58236L84.5478 5.6826C84.5327 5.75213 84.5609 5.81978 84.6229 5.85548C84.683 5.89306 84.7582 5.88555 84.8127 5.83857C85.5211 5.24101 86.3555 4.93847 87.2913 4.93847C88.5334 4.93847 89.4015 5.38946 89.8751 6.27828C90.2885 7.06376 90.3599 8.11418 90.0874 9.40138C89.7924 10.7863 89.2625 11.9025 88.5127 12.718C87.6596 13.6595 86.5622 14.1368 85.2524 14.1368H85.2505ZM82.7739 12.1618C82.8096 12.1618 82.9618 12.1768 83.0238 12.408C83.3113 13.449 84.0385 13.9545 85.2505 13.9545C86.4626 13.9545 87.5581 13.4979 88.3755 12.5959C89.1027 11.8029 89.6176 10.7168 89.9051 9.3638C90.1701 8.11982 90.1043 7.11073 89.7097 6.36472C89.2719 5.53979 88.4563 5.12262 87.2875 5.12262C86.3968 5.12262 85.6038 5.41013 84.9292 5.9795C84.8127 6.07722 84.6549 6.09225 84.5252 6.01333C84.3974 5.93628 84.3354 5.79159 84.3655 5.64502L85.2374 1.54666C85.2411 1.5335 85.2374 1.52035 85.2299 1.51095C85.2223 1.49968 85.2111 1.49404 85.196 1.49404H81.4059C81.3871 1.49404 81.3683 1.50908 81.3645 1.52787L78.7788 13.6933C78.7751 13.7064 78.7788 13.7177 78.7882 13.729C78.7958 13.7384 78.807 13.744 78.8202 13.744H82.1707C82.1894 13.744 82.2082 13.729 82.212 13.7102L82.4864 12.4211C82.507 12.2971 82.6047 12.1618 82.7701 12.1618H82.7739Z" fill="white"/>
<path d="M21.6818 6.37785C21.229 5.43829 20.3476 4.96851 19.0417 4.96851C18.0307 4.96851 17.1907 5.31614 16.4992 6.00954C16.4955 6.0133 16.4917 6.01893 16.4861 6.02269C16.2418 6.26698 16.0012 6.72924 15.9956 6.73676C15.9918 6.74052 15.9881 6.75179 15.9862 6.75555C15.9467 6.80629 15.9449 6.81756 15.8979 6.81944C15.8941 6.81944 15.8923 6.81944 15.8885 6.81944C15.8641 6.81944 15.8565 6.78374 15.8584 6.73676C15.8603 6.66159 15.8847 6.56012 15.8847 6.56012L16.0313 5.90431L16.0971 5.57358C16.1384 5.36688 15.9806 5.17709 15.7701 5.17709H12.5512C12.3933 5.17709 12.258 5.28796 12.2261 5.44017L9.76632 17.0174C9.7231 17.2241 9.88095 17.4196 10.0914 17.4196H13.596C13.7557 17.4196 13.8929 17.3068 13.9229 17.149L14.6182 13.5279C14.6276 13.4772 14.6426 13.3625 14.6614 13.2404C14.6783 13.184 14.7028 13.1464 14.7535 13.122C14.7911 13.1032 14.8756 13.1089 14.917 13.1596C15.1857 13.4809 15.5503 13.7196 15.9693 13.8774C16.0257 13.9 16.082 13.9206 16.1403 13.9413C16.2079 13.962 16.2737 13.9789 16.3432 13.9939C16.6101 14.0616 16.8901 14.1067 17.2001 14.1067C18.4366 14.1067 19.4757 13.6651 20.3213 12.7819C21.0674 11.9983 21.5766 10.9648 21.8491 9.67946C22.1441 8.29455 22.0896 7.19338 21.6875 6.37785H21.6818ZM17.606 9.53853C17.2997 10.8182 16.7886 11.4684 16.0877 11.4684C15.8415 11.4684 15.6517 11.3876 15.5239 11.226C15.2966 10.9385 15.2646 10.3898 15.4337 9.68322C15.5446 9.21908 15.6931 8.83762 15.8753 8.54447C16.0877 8.16113 16.3526 7.95255 16.6946 7.90369C16.7886 7.88114 16.8807 7.87175 16.9765 7.87175C17.2433 7.87175 17.4313 7.94691 17.5515 8.09912C17.7545 8.35656 17.7714 8.84137 17.6041 9.54041L17.606 9.53853Z" fill="white"/>
<path d="M111.395 4.16592L110.004 4.1584C109.88 4.1584 109.788 4.04377 109.814 3.92351L110.575 0.234795C110.605 0.0919816 110.472 -0.0320404 110.331 0.00742113L103.858 1.8452C103.788 1.86587 103.735 1.92225 103.72 1.99177L103.288 4.01183C103.269 4.10203 103.189 4.16592 103.097 4.16592H102.018C101.924 4.16592 101.843 4.23168 101.826 4.32376L101.682 5.18064L101.633 5.47003C101.633 5.47003 101.588 5.23889 101.345 4.97582C101.054 4.64509 100.59 4.40832 100.195 4.23544C99.5093 3.93854 98.6862 3.78821 97.7298 3.78821C94.2139 3.78821 92.2897 5.10172 91.2468 6.70273C91.1622 6.36073 91.0476 6.03752 90.8916 5.7425C90.5327 5.06601 89.86 4.30309 88.6405 3.96673C88.5991 3.95545 87.3401 3.63976 86.2991 4.08887C85.9251 4.25048 85.6752 4.48349 85.6752 4.48349L85.6658 4.47597C85.6658 4.47597 86.2483 3.48567 86.3273 3.06099L86.5152 1.94104L86.844 0.39452C86.8703 0.272377 86.7764 0.157751 86.6523 0.157751H80.4512C80.3592 0.157751 80.2784 0.221641 80.2596 0.311839L77.1741 14.8356C77.1478 14.9577 77.2417 15.0723 77.3657 15.0723H82.4619C82.7363 15.0723 82.7626 14.8093 82.7889 14.6965C82.849 14.4334 82.9486 13.9975 82.9486 13.943C82.9486 13.8659 83.0031 13.8152 83.0181 13.9054C83.0482 14.1046 83.1309 14.3132 83.2681 14.5011C83.3545 14.6213 83.5856 14.8844 84.1418 15.0817C84.4876 15.2057 84.8691 15.2809 85.2505 15.2809C86.8966 15.2809 88.2815 14.6777 89.362 13.4864C89.6345 13.1895 89.875 12.8531 90.0949 12.4904C90.1776 12.3532 90.3805 12.3608 90.4407 12.5073C90.6192 12.9376 90.8653 13.3266 91.1848 13.6743C92.1619 14.7397 93.9001 15.3767 95.9784 15.3767C98.6637 15.3767 100.315 14.58 100.678 14.3865C100.727 14.3601 100.761 14.3132 100.774 14.2606L101.208 12.6783C101.208 12.6783 101.247 12.404 101.531 12.404C101.668 12.404 101.742 12.4923 101.777 12.5675C101.798 12.6126 101.851 12.7967 101.9 12.9734C101.98 13.2721 102.334 14.2061 103.232 14.7228C103.918 15.1174 104.844 15.2884 105.071 15.311C107.687 15.5665 109.127 14.7942 109.459 14.5875C109.506 14.5575 109.538 14.5124 109.549 14.4579L110.348 10.5061C110.374 10.3727 110.262 10.2543 110.128 10.2749L108.877 10.3727C108.572 10.4159 108.431 10.2806 108.467 10.01L108.7 8.85244C108.719 8.76037 108.798 8.6946 108.892 8.6946H110.536C110.63 8.6946 110.711 8.63071 110.728 8.53863L111.59 4.39517C111.615 4.2749 111.523 4.16216 111.398 4.16216L111.395 4.16592ZM89.9953 9.38235C89.704 10.7504 89.1816 11.8534 88.4431 12.6558C87.6069 13.5766 86.5321 14.0445 85.2505 14.0445C83.969 14.0445 83.2361 13.5164 82.9354 12.4303C82.8941 12.2743 82.8058 12.2518 82.7682 12.2518C82.6404 12.2518 82.5859 12.3758 82.5747 12.4397L82.3003 13.7288C82.2871 13.7908 82.2327 13.8359 82.1688 13.8359H78.8183C78.7769 13.8359 78.7394 13.8171 78.7131 13.7851C78.6886 13.7532 78.6774 13.7137 78.6868 13.6743L81.2724 1.50884C81.2856 1.44683 81.3401 1.40361 81.404 1.40361H85.1941C85.2355 1.40361 85.2731 1.4224 85.2994 1.45434C85.3238 1.48629 85.3351 1.52575 85.3257 1.56521L84.4538 5.66545C84.4312 5.77256 84.4763 5.87967 84.5703 5.93605C84.6642 5.99242 84.7807 5.98302 84.8672 5.91162C85.5587 5.32909 86.3724 5.03219 87.2856 5.03219C88.4901 5.03219 89.3338 5.46627 89.7886 6.32315C90.1926 7.08983 90.2603 8.11959 89.9915 9.38423L89.9953 9.38235ZM101.135 10.0156L101.118 10.0945C101.114 10.1096 101.013 10.4873 100.607 10.4873H95.4523C95.3132 10.4873 95.1967 10.5944 95.1929 10.7278C95.1854 11.0285 95.2756 11.2803 95.4654 11.4757C95.8093 11.8308 96.4632 12.0037 97.4667 12.0056C98.504 12.0131 99.2462 11.9323 100.037 11.7463C100.082 11.7369 100.131 11.7482 100.165 11.782C100.199 11.8158 100.21 11.8609 100.201 11.9041L99.7705 13.4845C99.7611 13.5296 99.7291 13.5653 99.6859 13.5803C98.4419 14.0463 97.2957 14.2267 95.9709 14.176C94.197 14.1008 92.8215 13.6273 92.1018 12.8399C91.3727 12.0432 91.1641 10.8819 91.4798 9.38987C92.0943 6.49603 94.197 5.02843 97.7298 5.02843C99.1184 5.02843 100.118 5.39298 100.701 6.11268C101.366 6.93386 101.511 8.24549 101.135 10.0156ZM109.722 7.52202C109.709 7.58404 109.655 7.62726 109.591 7.62726H107.99C107.868 7.62726 107.762 7.7137 107.738 7.83208L107.219 10.3163C107.125 10.7635 107.159 11.0924 107.325 11.2953C107.456 11.4569 107.667 11.5377 107.954 11.5377C108.242 11.5377 108.537 11.5039 108.802 11.4419C108.805 11.4419 108.807 11.4419 108.811 11.4419L108.918 11.4174L109.068 11.3723C109.027 11.455 108.969 11.5772 108.929 11.7839L108.576 13.5991C108.576 13.5991 108.55 13.7569 108.454 13.8208C108.362 13.8847 108.257 13.943 108.127 14.0069C107.403 14.3526 105.229 14.5932 103.818 13.7964C102.982 13.3229 102.741 12.2405 103.102 10.5794L103.651 7.93731C103.668 7.86215 103.647 7.78322 103.598 7.72309C103.549 7.66296 103.476 7.62913 103.399 7.62913H102.326C102.287 7.62913 102.247 7.61034 102.221 7.5784C102.196 7.54645 102.185 7.50699 102.195 7.46753L102.646 5.346C102.659 5.28399 102.713 5.23889 102.777 5.23889H104.017C104.138 5.23889 104.243 5.15433 104.269 5.03783L104.741 2.93321C104.752 2.88623 104.788 2.84677 104.835 2.83362L108.871 1.66856C108.916 1.65729 108.965 1.66856 108.999 1.70051C109.035 1.73245 109.048 1.77943 109.038 1.82641L108.358 4.92696C108.341 5.004 108.358 5.08293 108.409 5.14306C108.458 5.20319 108.531 5.23889 108.61 5.23889H110.044C110.085 5.23889 110.123 5.25768 110.147 5.28963C110.173 5.32157 110.183 5.36292 110.173 5.40238L109.722 7.52202Z" fill="white"/>
<path d="M120.117 7.49102L119.432 10.6724C119.394 10.8509 119.234 10.9787 119.052 10.9787H114.801C114.553 10.9787 114.369 10.7513 114.422 10.5089L115.108 7.32754C115.145 7.14902 115.305 7.02124 115.487 7.02124H119.738C119.986 7.02124 120.17 7.24861 120.117 7.49102Z" fill="#CAB167"/>
<path d="M131.623 17.717C130.06 17.717 128.607 17.3243 127.271 16.5426C125.935 15.759 124.881 14.6954 124.107 13.3518C123.332 12.0045 122.945 10.5425 122.945 8.96031C122.945 7.3781 123.332 5.9105 124.107 4.56881C124.881 3.22148 125.935 2.1579 127.271 1.37806C128.607 0.59447 130.058 0.203613 131.623 0.203613C133.188 0.203613 134.639 0.59447 135.975 1.37806C137.311 2.1579 138.365 3.22148 139.142 4.56881C139.916 5.91238 140.301 7.3781 140.301 8.96031C140.301 10.5425 139.916 12.0045 139.142 13.3518C138.365 14.6954 137.311 15.759 135.975 16.5426C134.639 17.3243 133.188 17.717 131.623 17.717ZM131.623 1.41565C130.27 1.41565 129.022 1.75389 127.878 2.43225C126.736 3.10873 125.824 4.02387 125.148 5.17577C124.469 6.32579 124.133 7.58668 124.133 8.96031C124.133 10.334 124.469 11.593 125.148 12.7449C125.824 13.8968 126.734 14.81 127.878 15.4884C129.021 16.1649 130.268 16.5031 131.623 16.5031C132.978 16.5031 134.226 16.1649 135.368 15.4884C136.511 14.81 137.418 13.8968 138.087 12.7449C138.754 11.593 139.089 10.3302 139.089 8.96031C139.089 7.59044 138.754 6.32579 138.087 5.17577C137.418 4.02387 136.513 3.10873 135.368 2.43225C134.228 1.75389 132.978 1.41565 131.623 1.41565Z" fill="white"/>
<path d="M145.205 3.60476V17.5309H144.018V0.177246L155.886 14.3665V0.387708H157.074V17.8222L145.205 3.60664V3.60476Z" fill="white"/>
<path d="M161.854 17.5309V0.387695H172.958V1.59973H163.042V8.35329H170.769V9.5672H163.042V16.2907H172.958V17.5309H161.854Z" fill="white"/>
</g>
<defs>
<clipPath id="clip0_3059_9876">
<rect width="172.638" height="18" fill="white" transform="translate(0.320007)"/>
</clipPath>
</defs>
</svg>
