<svg width="16" height="16" viewBox="0 0 16 16" fill="none" xmlns="http://www.w3.org/2000/svg">
<path fill-rule="evenodd" clip-rule="evenodd" d="M6.92163 2.31543C6.61182 0.988403 5.42139 0 4 0C2.34326 0 1 1.34314 1 3C1 3.76831 1.28882 4.46924 1.76392 5H0.5C0.223858 5 0 5.22386 0 5.5V8.5C0 8.77614 0.223858 9 0.5 9H5.5C5.77614 9 6 8.77614 6 8.5V6.5C6 6.22386 6.22386 6 6.5 6H9.5C9.77614 6 10 6.22386 10 6.5V8.5C10 8.77614 10.2239 9 10.5 9H15.5C15.7761 9 16 8.77614 16 8.5V5.5C16 5.22386 15.7761 5 15.5 5H14.2361C14.7112 4.46924 15 3.76831 15 3C15 1.34314 13.6567 0 12 0C10.5786 0 9.38818 0.988403 9.07837 2.31543C8.76733 2.11572 8.39722 2 8 2C7.60278 2 7.23267 2.11572 6.92163 2.31543ZM12 5H10V3C10 1.89539 10.8955 1 12 1C13.1045 1 14 1.89539 14 3C14 4.10461 13.1045 5 12 5ZM6 3V5H4C2.89551 5 2 4.10461 2 3C2 1.89539 2.89551 1 4 1C5.10449 1 6 1.89539 6 3Z" fill="white" fill-opacity="0.95"/>
<path d="M15 10.5C15 10.2239 14.7761 10 14.5 10H10.5C10.2239 10 10 10.2239 10 10.5V15.5C10 15.7761 10.2239 16 10.5 16H13C14.1045 16 15 15.1046 15 14V10.5Z" fill="white" fill-opacity="0.95"/>
<path d="M5.5 10C5.77614 10 6 10.2239 6 10.5V15.5C6 15.7761 5.77614 16 5.5 16H3C1.89551 16 1 15.1046 1 14V10.5C1 10.2239 1.22386 10 1.5 10H5.5Z" fill="white" fill-opacity="0.95"/>
</svg>
