<svg width="16" height="16" viewBox="0 0 16 16" fill="none" xmlns="http://www.w3.org/2000/svg">
<g clip-path="url(#clip0_3014_6546)">
<path d="M16 8.59888C15.9998 12.7761 12.3829 16.1008 8 16.1008C6.27573 16.1008 4.71632 15.5288 3.44824 14.5725L1.96387 15.9573C1.80871 16.1021 1.58237 16.1413 1.3877 16.0569C1.19301 15.9723 1.06652 15.7799 1.06641 15.5676V11.5852C1.06641 11.2908 1.30524 11.0522 1.59961 11.052H5.86621C6.08527 11.052 6.28295 11.1861 6.36328 11.3899C6.44335 11.5936 6.39047 11.8255 6.23047 11.9749L4.24121 13.8313C5.30583 14.5889 6.58815 15.0344 8 15.0344C11.8643 15.0344 14.9333 12.1189 14.9336 8.59888H16ZM8.38965 4.10767V5.38696H10.335V6.16528H8.38965V7.6106H9.22363C10.0526 7.61078 10.7246 8.28351 10.7246 9.11255C10.7244 9.94142 10.0525 10.6133 9.22363 10.6135H8.38965V11.8928H7.61035V10.6135H5.66504V9.83521H7.61035V8.38892H6.77637C5.94737 8.38873 5.27539 7.71698 5.27539 6.88794C5.27543 6.05893 5.94739 5.38715 6.77637 5.38696H7.61035V4.10767H8.38965ZM8.38965 8.38892V9.83521H9.22363C9.62258 9.83502 9.94609 9.51149 9.94629 9.11255C9.94629 8.71344 9.6227 8.3891 9.22363 8.38892H8.38965ZM6.77637 6.16528C6.37732 6.16547 6.05375 6.48886 6.05371 6.88794C6.05371 7.28705 6.3773 7.61041 6.77637 7.6106H7.61035V6.16528H6.77637ZM14.0361 0.244385C14.1913 0.099538 14.4176 0.060268 14.6123 0.144775C14.8071 0.229416 14.9336 0.421662 14.9336 0.634033V4.61646C14.9335 4.91077 14.6947 5.14944 14.4004 5.14966H10.1338C9.91473 5.14966 9.71705 5.01557 9.63672 4.81177C9.55652 4.60808 9.60956 4.37624 9.76953 4.22681L11.7588 2.36938C10.6942 1.61183 9.41183 1.16724 8 1.16724C4.13561 1.16724 1.06647 4.08263 1.06641 7.60278H0C6.76412e-05 3.42541 3.61702 0.10083 8 0.10083C9.72434 0.100833 11.2837 0.672822 12.5518 1.62915L14.0361 0.244385Z" fill="#CAB167"/>
</g>
<defs>
<clipPath id="clip0_3014_6546">
<rect width="16" height="16" fill="white"/>
</clipPath>
</defs>
</svg>
