<svg width="16" height="16" viewBox="0 0 16 16" fill="none" xmlns="http://www.w3.org/2000/svg">
<path d="M8.5 6.86621C8.79883 6.69336 9 6.37012 9 6C9 5.44775 8.55225 5 8 5C7.44775 5 7 5.44775 7 6C7 6.16797 7.0415 6.32642 7.11475 6.46533C7.15625 6.54395 7.20776 6.61621 7.26758 6.68066C7.33521 6.75342 7.41357 6.81616 7.5 6.86621V7.5H6.86621C6.69336 7.20117 6.37012 7 6 7C5.44775 7 5 7.44775 5 8C5 8.55225 5.44775 9 6 9C6.16772 9 6.32593 8.9585 6.46484 8.8855C6.63232 8.79736 6.77173 8.66333 6.86621 8.5H7.5V9.13379C7.20117 9.30664 7 9.62988 7 10C7 10.5522 7.44775 11 8 11C8.55225 11 9 10.5522 9 10C9 9.62988 8.79883 9.30664 8.5 9.13379V8.5H9.13379C9.30664 8.79883 9.62988 9 10 9C10.5522 9 11 8.55225 11 8C11 7.44775 10.5522 7 10 7C9.62988 7 9.30664 7.20117 9.13379 7.5H8.5V6.86621Z" fill="#CAB167"/>
<path fill-rule="evenodd" clip-rule="evenodd" d="M16 8C16 12.4182 12.4182 16 8 16C3.58179 16 0 12.4182 0 8C0 3.58179 3.58179 0 8 0C12.4182 0 16 3.58179 16 8ZM8.5 14.9824V12.9753C8.77563 12.948 9.04468 12.8982 9.30542 12.8279L10.0205 14.7041C9.77661 14.7776 9.5271 14.8381 9.27271 14.8848C9.01953 14.9312 8.76172 14.9639 8.5 14.9824ZM9.63379 12.7271C9.52563 12.7644 9.41675 12.7979 9.30542 12.8279C9.37451 12.8093 9.44287 12.7893 9.5105 12.7678C9.55176 12.7549 9.59302 12.7412 9.63379 12.7271ZM9.63379 12.7271C9.6665 12.7158 9.69971 12.7039 9.73218 12.6919L9.72437 12.6948C9.69434 12.7058 9.66406 12.7166 9.63379 12.7271ZM13.2908 12.5835L11.8716 11.1643C12.0828 10.9062 12.2686 10.6267 12.4253 10.3296L14.2864 11.0828C14.1833 11.2927 14.0701 11.4968 13.947 11.6943C13.8562 11.8401 13.7603 11.9824 13.6594 12.1208C13.6235 12.1699 13.5872 12.2185 13.55 12.2664C13.4668 12.3745 13.3801 12.4802 13.2908 12.5835ZM5.66528 12.4226L4.91016 14.283C4.47827 14.0701 4.07129 13.814 3.69531 13.5205C3.60034 13.4463 3.50732 13.3696 3.41626 13.2908L4.83569 11.8716C5.09229 12.0815 5.36987 12.2664 5.66528 12.4226ZM3.18652 9.35742L1.31812 10.0928C1.2793 9.96899 1.2439 9.84399 1.21216 9.71753C1.18091 9.59375 1.15308 9.46875 1.12866 9.34277C1.0752 9.06738 1.03784 8.78613 1.01758 8.5H3.02466L3.02344 8.4873C3.05249 8.78564 3.10767 9.07666 3.18652 9.35742ZM4.12866 4.83545C3.91553 5.09595 3.72754 5.37964 3.56982 5.67993L3.57495 5.66992L1.71387 4.91675C1.98096 4.37305 2.31665 3.86914 2.70947 3.41626L4.12866 4.83545ZM6.69482 3.17212L5.97974 1.2959C6.26611 1.20972 6.5603 1.14136 6.86084 1.09229C7.07104 1.05786 7.28418 1.03296 7.5 1.01758V3.02466L7.5293 3.02197C7.24292 3.04858 6.96509 3.09937 6.69482 3.17212ZM10.7307 3.81079C10.6023 3.72681 10.4709 3.64941 10.3347 3.57739L11.0901 1.71729C11.4924 1.91553 11.8728 2.15112 12.2268 2.41968C12.3489 2.51221 12.468 2.60889 12.5837 2.70923L11.1643 4.12842C11.0256 4.01514 10.8809 3.90918 10.7307 3.81079ZM12.9753 7.5C12.9463 7.20605 12.8916 6.91968 12.8137 6.64282L14.6819 5.90747C14.8408 6.41577 14.9436 6.94922 14.9824 7.5H12.9753ZM8 12C10.2092 12 12 10.2092 12 8C12 5.79077 10.2092 4 8 4C5.79077 4 4 5.79077 4 8C4 10.2092 5.79077 12 8 12Z" fill="#CAB167"/>
</svg>
