<svg width="33" height="14" viewBox="0 0 33 14" fill="none" xmlns="http://www.w3.org/2000/svg">
<g clip-path="url(#clip0_3034_6714)">
<path d="M6.20672 12.5121C5.19265 12.5121 4.2519 12.258 3.38591 11.7506C2.51992 11.2425 1.83613 10.5529 1.33527 9.68258C0.833679 8.80934 0.58252 7.86132 0.58252 6.83564C0.58252 5.80996 0.833679 4.85977 1.33527 3.9887C1.83686 3.11545 2.51992 2.42586 3.38591 1.92064C4.2519 1.41252 5.19265 1.15918 6.20672 1.15918C7.22079 1.15918 8.16154 1.41179 9.02753 1.92064C9.89351 2.42586 10.5773 3.11545 11.0796 3.9887C11.5812 4.85904 11.8309 5.80996 11.8309 6.83564C11.8309 7.86132 11.5812 8.80934 11.0796 9.68258C10.5773 10.5529 9.89351 11.2425 9.02753 11.7506C8.16154 12.2573 7.22079 12.5121 6.20672 12.5121ZM6.20672 1.94604C5.32912 1.94604 4.52047 2.16599 3.77934 2.60515C3.03821 3.04286 2.44806 3.63664 2.00962 4.38286C1.57046 5.12835 1.35196 5.9457 1.35196 6.83564C1.35196 7.72558 1.57046 8.54221 2.00962 9.28842C2.44733 10.0354 3.03821 10.627 3.77934 11.0661C4.52047 11.5038 5.32912 11.7238 6.20672 11.7238C7.08432 11.7238 7.89441 11.5038 8.63409 11.0661C9.37523 10.627 9.96247 10.0346 10.3966 9.28842C10.8292 8.54148 11.0455 7.72268 11.0455 6.83564C11.0455 5.9486 10.8285 5.12762 10.3966 4.38286C9.96247 3.63592 9.37523 3.04286 8.63409 2.60515C7.89441 2.16599 7.08432 1.94604 6.20672 1.94604Z" fill="white"/>
<path d="M15.0109 3.36502V12.3915H14.2407V1.14307L21.933 10.3408V1.27953H22.7032V12.5795L15.0109 3.36502Z" fill="white"/>
<path d="M25.803 12.3917V1.27979H33.0002V2.0652H26.5731V6.44304H31.5811V7.22991H26.5731V11.5874H33.0002V12.3917H25.803Z" fill="white"/>
</g>
<defs>
<clipPath id="clip0_3034_6714">
<rect width="32.4175" height="13.7221" fill="white" transform="translate(0.58252)"/>
</clipPath>
</defs>
</svg>
