<svg width="22" height="22" viewBox="0 0 22 22" fill="none" xmlns="http://www.w3.org/2000/svg">
<path d="M0.918023 14.4534C0.87721 14.4534 0.835375 14.4626 0.796602 14.4809C0.711914 14.5207 0.648653 14.5993 0.627226 14.6901L0.256841 16.4461C0.238475 16.5257 0.25276 16.6073 0.296635 16.6777C0.340509 16.7481 0.407852 16.7961 0.487439 16.8145C1.75164 17.1012 2.93014 17.2471 4.0719 17.2471C5.46773 17.2471 6.71459 17.0226 7.77575 16.5788C9.14301 16.0247 9.97051 15.1686 10.2368 14.032C10.4644 13.0637 10.1685 12.3851 9.33483 11.9576C8.88282 11.7199 8.04818 11.5189 6.85642 11.3607C6.0728 11.2638 5.65037 11.1352 5.52691 10.9577C5.4912 10.9067 5.47896 10.8485 5.49324 10.7903C5.59834 10.3434 6.20034 10.1251 7.33496 10.1251C8.14205 10.1251 8.992 10.2526 9.86031 10.5047C9.94296 10.5281 10.0327 10.5169 10.1052 10.474C10.1756 10.4322 10.2246 10.3649 10.2419 10.2843L10.6337 8.49968C10.6521 8.41703 10.6337 8.3303 10.5848 8.26092C10.5348 8.19051 10.4582 8.14358 10.3735 8.13338C9.40728 8.014 8.49407 7.96094 7.41149 7.96094C3.76988 7.96094 1.68736 8.967 1.22107 10.9516C0.988427 11.9433 1.27922 12.6443 2.10876 13.0953C2.53731 13.3208 3.36583 13.5453 4.57289 13.7616C5.30754 13.881 5.73098 14.0371 5.86465 14.2371C5.90954 14.3044 5.9228 14.3769 5.90546 14.4513C5.80547 14.8758 5.17591 15.0809 3.97803 15.0809C2.78015 15.0809 1.83633 14.8789 1.04148 14.4809C1.00373 14.4615 0.961898 14.4524 0.920064 14.4524L0.918023 14.4534Z" fill="white"/>
<path d="M16.3979 11.1641C15.7653 11.1641 15.3235 11.7008 15.0837 12.7599C14.947 13.3639 14.9776 13.7945 15.1735 14.0404C15.2959 14.1924 15.4796 14.27 15.7214 14.27C16.3428 14.27 16.7458 13.768 16.9897 12.6874C17.1325 12.0569 17.108 11.6171 16.9183 11.3794C16.804 11.2365 16.6295 11.1641 16.3979 11.1641Z" fill="white"/>
<path d="M19.9708 15.9269C20.4238 15.4299 21.6554 13.5617 21.5788 11.2333C21.5697 10.9455 21.4574 10.1864 21.1442 9.61297C20.7442 8.87934 19.9187 7.99879 18.1689 7.99879C17.5016 7.99879 16.7679 8.62324 16.7679 8.62324L16.7608 8.6161C16.7608 8.6161 17.2679 7.75391 17.3363 7.38556L17.8015 5.19489C17.823 5.09489 17.7464 5 17.6434 5H12.5192C12.4427 5 12.3774 5.05306 12.3611 5.12754L9.81123 17.1298C9.7898 17.2298 9.86633 17.3247 9.96938 17.3247H14.1814C14.4079 17.3247 14.4303 17.1064 14.4518 17.0135C14.5017 16.7962 14.5834 16.436 14.5834 16.3911C14.5834 16.3268 14.6293 16.286 14.6405 16.3595C14.666 16.5238 14.7334 16.6962 14.8466 16.8513C14.918 16.9503 15.1099 17.1676 15.569 17.3319C15.8547 17.4339 16.17 17.5023 16.4853 17.4961C18.7586 17.4533 19.9371 15.9615 19.9708 15.9248V15.9269ZM16.4853 16.5238C15.4292 16.5238 14.7752 16.0666 14.5232 15.1524C14.5181 15.134 14.4936 15.0443 14.4354 15.0432C14.3436 15.0422 14.3252 15.1575 14.3252 15.1575L14.0987 16.2238C14.0824 16.2983 14.0171 16.3513 13.9406 16.3513H11.1713C11.0683 16.3513 10.9918 16.2564 11.0132 16.1564L13.1498 6.10197C13.1661 6.02749 13.2314 5.97443 13.3079 5.97443H16.4404C16.5435 5.97443 16.62 6.06932 16.5986 6.16931L15.8782 9.55685C15.8466 9.70684 16.021 9.80888 16.1384 9.71092C16.722 9.21912 17.3985 8.9722 18.1699 8.9722C19.1912 8.9722 19.8953 9.33646 20.283 10.067C20.6238 10.7139 20.6809 11.569 20.4554 12.6301C20.2116 13.776 19.781 14.6851 19.1617 15.3595C18.4566 16.136 17.5648 16.5238 16.4853 16.5238Z" fill="white"/>
</svg>
