<svg width="16" height="16" viewBox="0 0 16 16" fill="none" xmlns="http://www.w3.org/2000/svg">
<path d="M1.51545 5.6915C1.55438 5.86073 1.5018 6.03781 1.37654 6.15935L0.822744 6.69668C0.49413 7.01552 -0.029582 6.77049 0.0664952 6.32522C0.172738 5.83284 0.324879 5.35723 0.518286 4.90295C0.693981 4.49027 1.25807 4.57261 1.3585 5.00922L1.51545 5.6915Z" fill="#CAB167"/>
<path d="M3.02377 5.84171C2.88524 5.77559 2.78469 5.65069 2.75056 5.50235L2.12867 2.7993C2.09142 2.63741 2.13707 2.46702 2.25577 2.34963C2.77497 1.83615 3.36428 1.39191 4.00843 1.0322C4.14883 0.953797 4.31929 0.952557 4.46399 1.0229L7.08728 2.29819C7.26024 2.38228 7.36982 2.55631 7.36982 2.74692V3.92677C7.36982 4.08198 7.29694 4.22839 7.17256 4.32304L4.59417 6.28524C4.44266 6.40055 4.23833 6.42145 4.06615 6.33927L3.02377 5.84171Z" fill="#CAB167"/>
<path d="M8.21486 1.25414C8.07352 1.32422 7.90717 1.32487 7.76528 1.2559L6.98114 0.87471C6.56479 0.672312 6.62995 0.0994163 7.09107 0.049009C7.3873 0.0166268 7.68832 0 7.99325 0C8.2898 0 8.58263 0.0157203 8.87094 0.0463643C9.33123 0.0952872 9.39954 0.666698 8.98571 0.871903L8.21486 1.25414Z" fill="#CAB167"/>
<path d="M8.61668 2.74083C8.61668 2.55163 8.72466 2.37863 8.89567 2.29384L11.4893 1.00793C11.634 0.936213 11.8051 0.936401 11.9463 1.01445C12.5906 1.37044 13.1804 1.81078 13.7007 2.32029C13.8194 2.43648 13.8661 2.60554 13.8307 2.76694L13.2309 5.50045C13.1979 5.65084 13.0967 5.77782 12.9566 5.84471L11.9204 6.33934C11.7482 6.42153 11.5438 6.40062 11.3923 6.2853L8.81393 4.32304C8.68956 4.22839 8.61668 4.08198 8.61668 3.92677V2.74083Z" fill="#CAB167"/>
<path d="M14.63 6.13621C14.494 6.01625 14.4338 5.83318 14.4724 5.65705L14.6187 4.99027C14.7149 4.55141 15.28 4.46486 15.4576 4.87813C15.6386 5.29912 15.784 5.73857 15.8903 6.19283C15.9926 6.63047 15.484 6.88948 15.1451 6.5905L14.63 6.13621Z" fill="#CAB167"/>
<path d="M13.3152 7.0406C13.4993 6.95272 13.7188 6.98316 13.8714 7.11773L15.8333 8.84809C15.9578 8.95784 16.0206 9.1214 15.994 9.28417C15.861 10.0976 15.6039 10.87 15.2421 11.5818C15.1676 11.7285 15.0207 11.8244 14.8557 11.8418L11.9631 12.1475C11.8221 12.1624 11.6812 12.118 11.5749 12.0252L11.0381 11.5566C10.8847 11.4228 10.828 11.2107 10.8944 11.0194L12.0008 7.83256C12.0447 7.70632 12.1377 7.60265 12.2592 7.54464L13.3152 7.0406Z" fill="#CAB167"/>
<path d="M11.8428 13.6509C11.9157 13.4868 12.0718 13.3738 12.252 13.3548L12.944 13.2817C13.3971 13.2338 13.657 13.7399 13.3131 14.0355C12.9605 14.3386 12.5811 14.6121 12.1788 14.852C11.7897 15.0841 11.383 14.6861 11.5658 14.2746L11.8428 13.6509Z" fill="#CAB167"/>
<path d="M10.5045 12.7339C10.6694 12.8778 10.7213 13.1107 10.6328 13.3099L9.60652 15.6205C9.53935 15.7717 9.40117 15.8814 9.2361 15.9065C8.8309 15.9681 8.41577 16 7.99325 16C7.57073 16 7.1556 15.9681 6.7504 15.9065C6.58533 15.8814 6.44715 15.7717 6.37998 15.6205L5.35366 13.3099C5.26519 13.1107 5.31708 12.8778 5.48199 12.7339L6.01918 12.265C6.11155 12.1844 6.2305 12.1399 6.3537 12.1399H9.6328C9.756 12.1399 9.87495 12.1844 9.96732 12.265L10.5045 12.7339Z" fill="#CAB167"/>
<path d="M3.73454 13.3548C3.91472 13.3738 4.07081 13.4868 4.14369 13.6509L4.4207 14.2746C4.60346 14.6861 4.19681 15.0841 3.80767 14.852C3.40544 14.6121 3.02604 14.3386 2.67345 14.0355C2.32948 13.7399 2.5894 13.2338 3.04254 13.2817L3.73454 13.3548Z" fill="#CAB167"/>
<path d="M4.41162 12.0252C4.30529 12.118 4.16442 12.1624 4.0234 12.1475L1.13078 11.8418C0.965768 11.8244 0.818928 11.7285 0.74439 11.5818C0.391859 10.8883 0.138747 10.1371 0.00302865 9.34649C-0.00890861 9.27695 0.0149395 9.20625 0.0657753 9.15678L2.13322 7.15095C2.28543 7.00328 2.51494 6.96593 2.70696 7.05758L3.72725 7.54456C3.8488 7.60258 3.94184 7.70625 3.98567 7.83249L5.09206 11.0194C5.15848 11.2107 5.10179 11.4228 4.94844 11.5566L4.41162 12.0252Z" fill="#CAB167"/>
<path d="M6.73287 10.9091C6.51695 10.9091 6.32486 10.7735 6.25474 10.5715L5.27528 7.75055C5.20481 7.54758 5.27315 7.32278 5.44511 7.1919L7.68494 5.4872C7.86669 5.34888 8.11981 5.34888 8.30156 5.4872L10.5414 7.1919C10.7133 7.32278 10.7817 7.54758 10.7112 7.75055L9.73176 10.5715C9.66164 10.7735 9.46955 10.9091 9.25363 10.9091H6.73287Z" fill="#CAB167"/>
</svg>
