<svg width="16" height="16" viewBox="0 0 16 16" fill="none" xmlns="http://www.w3.org/2000/svg">
<path d="M8.43477 0.286606C8.26027 -0.0955353 7.73973 -0.0955352 7.56523 0.286606L6.72513 2.12634C6.65491 2.28013 6.51499 2.38635 6.35332 2.40862L4.41933 2.67502C4.01761 2.73036 3.85676 3.24769 4.15063 3.5392L5.56541 4.94262C5.68368 5.05994 5.73712 5.23181 5.70743 5.39937L5.35225 7.40374C5.27848 7.82008 5.69961 8.13981 6.05573 7.93783L7.77021 6.96546C7.91353 6.88418 8.08647 6.88418 8.22979 6.96546L9.94427 7.93783C10.3004 8.13981 10.7215 7.82008 10.6477 7.40374L10.2926 5.39937C10.2629 5.23181 10.3163 5.05994 10.4346 4.94262L11.8494 3.5392C12.1432 3.24769 11.9824 2.73036 11.5807 2.67502L9.64668 2.40862C9.48501 2.38635 9.34509 2.28013 9.27487 2.12634L8.43477 0.286606Z" fill="#CAB167"/>
<path d="M5 11C5 10.4477 5.44772 10 6 10H10C10.5523 10 11 10.4477 11 11V15C11 15.5523 10.5523 16 10 16H6C5.44772 16 5 15.5523 5 15V11Z" fill="#CAB167"/>
<path d="M0 12.5C0 12.2239 0.223858 12 0.5 12H3.5C3.77614 12 4 12.2239 4 12.5V15.5C4 15.7761 3.77614 16 3.5 16H0.5C0.223858 16 0 15.7761 0 15.5V12.5Z" fill="#CAB167"/>
<path d="M12.5 12C12.2239 12 12 12.2239 12 12.5V15.5C12 15.7761 12.2239 16 12.5 16H15.5C15.7761 16 16 15.7761 16 15.5V12.5C16 12.2239 15.7761 12 15.5 12H12.5Z" fill="#CAB167"/>
</svg>
