<svg width="16" height="17" viewBox="0 0 16 17" fill="none" xmlns="http://www.w3.org/2000/svg">
<path fill-rule="evenodd" clip-rule="evenodd" d="M16 8.10059C16 12.5188 12.4182 16.1006 8 16.1006C3.58172 16.1006 0 12.5188 0 8.10059C0 3.68231 3.58172 0.100586 8 0.100586C12.4182 0.100586 16 3.68231 16 8.10059ZM8.8 4.90059C8.8 5.34241 8.44184 5.70059 8 5.70059C7.55816 5.70059 7.2 5.34241 7.2 4.90059C7.2 4.45876 7.55816 4.10059 8 4.10059C8.44184 4.10059 8.8 4.45876 8.8 4.90059ZM8 6.50059C7.55816 6.50059 7.2 6.85875 7.2 7.30059V11.3006C7.2 11.7424 7.55816 12.1006 8 12.1006C8.44184 12.1006 8.8 11.7424 8.8 11.3006V7.30059C8.8 6.85875 8.44184 6.50059 8 6.50059Z" fill="white" fill-opacity="0.95"/>
</svg>
