<svg width="16" height="16" viewBox="0 0 16 16" fill="none" xmlns="http://www.w3.org/2000/svg">
<g clip-path="url(#clip0_3014_6588)">
<path d="M2.91235 14.7808C3.5059 14.7964 3.40032 15.4495 3.40649 15.8589C3.40649 15.9307 3.34375 15.9936 3.2688 15.9937H0.143799C0.0687988 15.9937 0.00610352 15.9339 0.00610352 15.8589C0.0060308 15.4496 -0.0966862 14.7967 0.496338 14.7808H2.91235ZM15.5061 14.7778C15.7749 14.781 15.9963 15.0001 15.9963 15.272C15.9809 15.3448 16.0341 15.9121 15.9592 15.9497C15.9343 15.9747 15.9 15.9907 15.8625 15.9907H12.7375C12.7001 15.9907 12.6659 15.9747 12.6409 15.9497C12.5629 15.906 12.6122 15.3453 12.5999 15.269C12.5999 15.0004 12.8184 14.7781 13.0901 14.7778H15.5061ZM2.73462 14.4409H0.672119L0.956299 6.92822C1.40301 7.15932 2.0058 7.15922 2.44946 6.92822L2.73462 14.4409ZM15.3284 14.4409H13.2659L13.55 6.92822C13.775 7.04068 14.0284 7.10303 14.2971 7.10303C14.5656 7.10298 14.8184 7.04054 15.0432 6.92822L15.3284 14.4409ZM12.7903 6.1626C12.8934 6.3751 13.0407 6.5624 13.2219 6.7124L13.2063 7.1001C10.1345 8.8032 5.87191 8.80316 2.80005 7.1001L2.78442 6.7124C2.96252 6.55929 3.11295 6.37507 3.21606 6.1626C6.01282 7.75606 9.99043 7.7561 12.7903 6.1626ZM13.3469 6.36865C12.1189 5.10318 13.9776 3.24417 15.2463 4.46826C16.4745 5.737 14.6157 7.59672 13.3469 6.36865ZM1.7063 4.07764C3.47179 4.10586 3.47178 6.73398 1.7063 6.76221C-0.0593262 6.73408 -0.0624511 4.10576 1.7063 4.07764ZM7.86548 0.043457C7.99043 -0.0408475 8.18119 0.0186128 8.22192 0.168457C8.30626 0.383993 8.38443 0.855532 8.59985 0.983887C8.79045 1.14948 9.25607 1.07786 9.49048 1.09033C9.71225 1.08096 9.81532 1.39314 9.62817 1.51514C9.45005 1.66201 9.02505 1.88154 8.97192 2.12842C8.8722 2.35973 9.08445 2.78143 9.1438 3.00635C9.22166 3.2124 8.95645 3.40598 8.78149 3.26904C8.47524 3.04404 8.04692 2.62822 7.65942 2.94385C7.49701 3.02818 7.14093 3.44953 6.93774 3.26904C6.70649 3.13154 6.99653 2.65908 7.02466 2.48096C7.20267 2.01539 6.68089 1.73719 6.36841 1.51221C6.18137 1.39021 6.28443 1.07814 6.5061 1.0874C6.74355 1.07491 7.22183 1.15013 7.40942 0.972168C7.6813 0.803418 7.64985 0.246582 7.86548 0.043457ZM3.51196 0.652832C3.54329 0.5405 3.7189 0.540517 3.75024 0.652832C3.81586 0.824696 3.87156 1.16902 4.04028 1.26904C4.19017 1.39704 4.53062 1.34669 4.71509 1.35596C4.83071 1.34971 4.88423 1.51592 4.78735 1.58154C4.5436 1.74715 4.15266 1.97833 4.29321 2.33447C4.30271 2.43148 4.50567 2.78118 4.37134 2.85303C4.26183 2.95872 3.99004 2.65925 3.90259 2.61865C3.60583 2.37537 3.26872 2.67183 3.03442 2.85303C2.9438 2.9249 2.80337 2.82178 2.84399 2.7124C2.89091 2.53738 3.0471 2.22466 2.96899 2.04346C2.92511 1.84978 2.61856 1.6901 2.47485 1.57764C2.40635 1.53067 2.40931 1.42133 2.47485 1.37451C2.51339 1.32812 2.89487 1.36214 2.94946 1.35303C3.15259 1.35303 3.32837 1.22451 3.39087 1.03076L3.51196 0.652832ZM12.259 0.655762C12.2905 0.543673 12.4659 0.543655 12.4973 0.655762C12.5598 0.824512 12.6186 1.16904 12.7874 1.26904C12.9342 1.39703 13.2749 1.34662 13.4592 1.35596C13.5748 1.34971 13.6284 1.51591 13.5315 1.58154C13.2877 1.74717 12.8967 1.97822 13.0374 2.33447C13.0439 2.38496 13.1967 2.74369 13.1624 2.79053C13.1374 2.8686 13.0346 2.906 12.969 2.85303C12.816 2.75623 12.566 2.50952 12.3723 2.52783C12.1754 2.50908 11.9278 2.75303 11.7747 2.85303C11.684 2.92461 11.5436 2.8217 11.5842 2.7124C11.6311 2.5374 11.7874 2.22471 11.7092 2.04346C11.6653 1.84985 11.3598 1.69008 11.2161 1.57764C11.1473 1.53076 11.1504 1.42139 11.2161 1.37451C11.2558 1.32835 11.6377 1.36237 11.6907 1.35303C11.8938 1.35301 12.0686 1.2245 12.1311 1.03076L12.259 0.655762Z" fill="#CAB167"/>
</g>
<defs>
<clipPath id="clip0_3014_6588">
<rect width="16" height="16" fill="white"/>
</clipPath>
</defs>
</svg>
