<svg width="24" height="24" viewBox="0 0 24 24" fill="none" xmlns="http://www.w3.org/2000/svg">
<path fill-rule="evenodd" clip-rule="evenodd" d="M0.228571 9.70701C1.37143 4.12739 6.09524 0 11.9619 0C18.5143 0 24 5.42675 24 12C24 18.5732 18.5905 24 12.0381 24C7.92381 24 4.26667 21.8599 2.13333 18.7261C0.761905 16.8153 0 14.4459 0 12C0 11.2357 0.0761905 10.4713 0.228571 9.70701ZM11.2071 16.2071L18.2071 9.20711L16.7929 7.79289L10.5 14.0858L7.20711 10.7929L5.79289 12.2071L9.79289 16.2071C10.1834 16.5976 10.8166 16.5976 11.2071 16.2071Z" fill="#76E89A"/>
</svg>
